<?xml version="1.0" encoding="utf-8"?>
<!-- Generator: Adobe Illustrator 27.5.0, SVG Export Plug-In . SVG Version: 6.00 Build 0)  -->
<svg version="1.1" id="Capa_1" xmlns="http://www.w3.org/2000/svg" xmlns:xlink="http://www.w3.org/1999/xlink" x="0px" y="0px"
	 viewBox="0 0 425.2 425.2" style="enable-background:new 0 0 425.2 425.2;" xml:space="preserve">
<g id="XMLID_26551_">
	<g id="XMLID_27302_">
		
			<linearGradient id="XMLID_00000117634852136184544680000013967219165707900549_" gradientUnits="userSpaceOnUse" x1="61.1448" y1="212.6" x2="364.0558" y2="212.6">
			<stop  offset="0" style="stop-color:#C08329"/>
			<stop  offset="0.1989" style="stop-color:#F4E6D0"/>
			<stop  offset="0.3602" style="stop-color:#EBC17D"/>
			<stop  offset="0.5376" style="stop-color:#EDD089"/>
			<stop  offset="0.6935" style="stop-color:#CA974D"/>
			<stop  offset="1" style="stop-color:#C08329"/>
		</linearGradient>
		<path id="XMLID_27308_" style="fill:url(#XMLID_00000117634852136184544680000013967219165707900549_);" d="M340.496,126.255
			c-61.53,0-127.896-67.75-127.896-67.75s-66.366,67.75-127.897,67.75c-7.823,0-15.481-0.472-22.917-1.371
			c4.551,31.788,31.392,175.757,150.813,241.811c119.432-66.054,146.265-210.023,150.813-241.811
			C355.977,125.783,348.32,126.255,340.496,126.255z"/>
		
			<linearGradient id="XMLID_00000078019735983208240620000014241177443283563397_" gradientUnits="userSpaceOnUse" x1="67.5332" y1="212.6" x2="357.6673" y2="212.6">
			<stop  offset="0" style="stop-color:#C08329"/>
			<stop  offset="0.3065" style="stop-color:#CA974D"/>
			<stop  offset="0.4624" style="stop-color:#EDD089"/>
			<stop  offset="0.6398" style="stop-color:#EBC17D"/>
			<stop  offset="0.8011" style="stop-color:#F4E6D0"/>
			<stop  offset="1" style="stop-color:#C08329"/>
		</linearGradient>
		<path id="XMLID_27307_" style="fill:url(#XMLID_00000078019735983208240620000014241177443283563397_);" d="M335.101,129.897
			c-58.935,0-122.501-64.892-122.501-64.892s-63.567,64.892-122.502,64.892c-7.493,0-14.828-0.452-21.95-1.313
			c4.359,30.447,30.068,168.343,144.452,231.611c114.394-63.268,140.095-201.164,144.452-231.611
			C349.93,129.445,342.595,129.897,335.101,129.897z"/>
		
			<linearGradient id="XMLID_00000120533290379236320850000007981191893993605792_" gradientUnits="userSpaceOnUse" x1="74.9048" y1="212.6" x2="350.2957" y2="212.6">
			<stop  offset="0" style="stop-color:#C08329"/>
			<stop  offset="0.1989" style="stop-color:#F4E6D0"/>
			<stop  offset="0.3602" style="stop-color:#EBC17D"/>
			<stop  offset="0.5376" style="stop-color:#EDD089"/>
			<stop  offset="0.6935" style="stop-color:#CA974D"/>
			<stop  offset="1" style="stop-color:#C08329"/>
		</linearGradient>
		<path id="XMLID_27306_" style="fill:url(#XMLID_00000120533290379236320850000007981191893993605792_);" d="M328.876,134.1
			c-55.939,0-116.276-61.595-116.276-61.595S152.263,134.1,96.324,134.1c-7.113,0-14.075-0.429-20.835-1.246
			c4.138,28.9,28.541,159.789,137.111,219.842c108.581-60.053,132.976-190.942,137.111-219.842
			C342.951,133.671,335.989,134.1,328.876,134.1z"/>
		
			<radialGradient id="XMLID_00000169519773103890997130000015063163180470220469_" cx="212.6" cy="212.6" r="135.1382" gradientUnits="userSpaceOnUse">
			<stop  offset="0" style="stop-color:#4F4F51"/>
			<stop  offset="0.6935" style="stop-color:#282829"/>
			<stop  offset="1" style="stop-color:#000000"/>
		</radialGradient>
		<path id="XMLID_27305_" style="fill:url(#XMLID_00000169519773103890997130000015063163180470220469_);" d="M325.963,136.066
			c-54.538,0-113.363-60.051-113.363-60.051s-58.825,60.051-113.363,60.051c-6.935,0-13.722-0.418-20.313-1.215
			c4.034,28.176,27.826,155.785,133.676,214.333c105.86-58.548,129.644-186.158,133.676-214.333
			C339.684,135.648,332.898,136.066,325.963,136.066z"/>
		<path id="XMLID_27304_" style="fill:#E0E1E2;" d="M309.104,165.942c-0.323,1.776-0.672,3.548-1.078,5.311
			c-3.286,14.277-8.795,28.187-14.662,41.583c-11.934,27.251-27.126,53.092-44.992,76.878c-14.322,19.07-30.951,36.12-49.19,51.396
			c4.322,2.812,8.787,5.513,13.418,8.074c103.196-57.075,128.391-179.761,133.329-212.003
			C333.917,147.103,321.738,156.819,309.104,165.942z"/>
		<defs>
			<filter id="Adobe_OpacityMaskFilter" filterUnits="userSpaceOnUse" x="86.787" y="78.731" width="253.005" height="104.778">
				<feFlood  style="flood-color:white;flood-opacity:1" result="back"/>
				<feBlend  in="SourceGraphic" in2="back" mode="normal"/>
			</filter>
		</defs>
		
			<mask maskUnits="userSpaceOnUse" x="86.787" y="78.731" width="253.005" height="104.778" id="XMLID_00000153668933848499535610000006005768946557877682_">
			<g id="XMLID_26140_" style="filter:url(#Adobe_OpacityMaskFilter);">
				<defs>
					
						<filter id="Adobe_OpacityMaskFilter_00000175315699100664882620000016493469905922054055_" filterUnits="userSpaceOnUse" x="86.787" y="78.731" width="253.005" height="104.778">
						<feFlood  style="flood-color:white;flood-opacity:1" result="back"/>
						<feBlend  in="SourceGraphic" in2="back" mode="normal"/>
					</filter>
				</defs>
				
					<mask maskUnits="userSpaceOnUse" x="86.787" y="78.731" width="253.005" height="104.778" id="XMLID_00000153668933848499535610000006005768946557877682_">
					<g id="XMLID_26142_" style="filter:url(#Adobe_OpacityMaskFilter_00000175315699100664882620000016493469905922054055_);">
					</g>
				</mask>
				
					<linearGradient id="XMLID_00000146470110643706790140000005772795741673701289_" gradientUnits="userSpaceOnUse" x1="213.2896" y1="188.3964" x2="213.2896" y2="71.7016">
					<stop  offset="0" style="stop-color:#000000"/>
					<stop  offset="0.1662" style="stop-color:#030303"/>
					<stop  offset="0.2972" style="stop-color:#0D0D0D"/>
					<stop  offset="0.4161" style="stop-color:#1E1E1E"/>
					<stop  offset="0.5279" style="stop-color:#353535"/>
					<stop  offset="0.6348" style="stop-color:#545454"/>
					<stop  offset="0.738" style="stop-color:#797979"/>
					<stop  offset="0.8381" style="stop-color:#A5A5A5"/>
					<stop  offset="0.9333" style="stop-color:#D7D7D7"/>
					<stop  offset="1" style="stop-color:#FFFFFF"/>
				</linearGradient>
				
					<path id="XMLID_26141_" style="mask:url(#XMLID_00000153668933848499535610000006005768946557877682_);fill:url(#XMLID_00000146470110643706790140000005772795741673701289_);" d="
					M338.504,137.333c-63.368,10-125.837-58.603-125.837-58.603S156.137,140,89.137,139c-7.697-0.115-2.837,44.509,115.2,44.509
					S346.107,136.134,338.504,137.333z"/>
			</g>
		</mask>
		
			<linearGradient id="XMLID_00000171680470429581986320000009530052310841804987_" gradientUnits="userSpaceOnUse" x1="213.2896" y1="188.3964" x2="213.2896" y2="71.7016">
			<stop  offset="0" style="stop-color:#4F4F51"/>
			<stop  offset="0.1785" style="stop-color:#525254"/>
			<stop  offset="0.319" style="stop-color:#5A5B5E"/>
			<stop  offset="0.4467" style="stop-color:#686A6C"/>
			<stop  offset="0.5667" style="stop-color:#7A7C7F"/>
			<stop  offset="0.6813" style="stop-color:#919396"/>
			<stop  offset="0.792" style="stop-color:#AEB0B3"/>
			<stop  offset="0.8974" style="stop-color:#D2D4D5"/>
			<stop  offset="1" style="stop-color:#FFFFFF"/>
		</linearGradient>
		<path id="XMLID_27303_" style="fill:url(#XMLID_00000171680470429581986320000009530052310841804987_);" d="M338.504,137.333
			c-63.368,10-125.837-58.603-125.837-58.603S156.137,140,89.137,139c-7.697-0.115-2.837,44.509,115.2,44.509
			S346.107,136.134,338.504,137.333z"/>
	</g>
	<path id="XMLID_27214_" style="fill:#C0C2C4;" d="M264.55,196.641h-3.802v-22.999c0-21.421-17.365-38.785-38.786-38.785h-9.696
		c-0.669,0-1.335,0.017-1.997,0.051c-0.226,0.011-0.448,0.036-0.673,0.051c-0.434,0.03-0.869,0.055-1.298,0.099
		c-0.193,0.02-0.383,0.051-0.576,0.073c-0.457,0.053-0.915,0.105-1.367,0.174c-0.155,0.024-0.307,0.057-0.461,0.083
		c-0.486,0.08-0.972,0.161-1.451,0.259c-0.136,0.028-0.269,0.064-0.404,0.093c-0.494,0.107-0.988,0.216-1.475,0.341
		c-0.104,0.027-0.206,0.06-0.31,0.088c-0.514,0.137-1.027,0.278-1.533,0.436c-0.095,0.029-0.186,0.064-0.281,0.095
		c-0.512,0.164-1.021,0.333-1.524,0.517c-0.05,0.019-0.099,0.04-0.15,0.059c-14.763,5.483-25.283,19.694-25.283,36.367v22.999
		h-3.803c0.742,14.534-16.615,60.529,10.96,80.367c0.085,0.061,0.167,0.125,0.253,0.186c0.406,0.286,0.827,0.563,1.252,0.838
		c0.148,0.096,0.292,0.194,0.441,0.289c0.396,0.249,0.808,0.489,1.221,0.728c0.193,0.112,0.384,0.226,0.581,0.336
		c0.396,0.22,0.805,0.433,1.217,0.645c0.23,0.118,0.459,0.238,0.694,0.353c0.401,0.196,0.813,0.386,1.227,0.574
		c0.266,0.121,0.532,0.241,0.804,0.357c0.406,0.174,0.821,0.343,1.24,0.509c0.299,0.119,0.601,0.236,0.906,0.35
		c0.413,0.154,0.834,0.304,1.26,0.451c0.333,0.114,0.669,0.226,1.009,0.336c0.422,0.136,0.849,0.268,1.283,0.396
		c0.365,0.108,0.736,0.211,1.11,0.314c0.431,0.118,0.865,0.233,1.308,0.344c0.399,0.1,0.808,0.193,1.217,0.287
		c0.439,0.1,0.878,0.199,1.328,0.292c0.437,0.09,0.885,0.173,1.332,0.257c0.445,0.083,0.889,0.166,1.345,0.242
		c0.477,0.079,0.967,0.15,1.456,0.221c0.45,0.066,0.896,0.134,1.356,0.194c0.522,0.067,1.06,0.124,1.596,0.183
		c0.449,0.049,0.893,0.102,1.352,0.145c0.583,0.055,1.186,0.097,1.784,0.141c0.435,0.032,0.859,0.07,1.302,0.097
		c0.688,0.042,1.398,0.069,2.106,0.097c0.376,0.015,0.74,0.037,1.122,0.049c1.101,0.032,2.223,0.05,3.372,0.05
		C292.677,286.267,263.596,215.358,264.55,196.641z M191.398,171.36c0.009-0.14,0.02-0.278,0.031-0.417
		c0.036-0.428,0.082-0.853,0.141-1.274c0.01-0.07,0.017-0.142,0.027-0.212c0.074-0.494,0.165-0.981,0.27-1.463
		c0.021-0.095,0.044-0.19,0.065-0.285c0.102-0.438,0.213-0.872,0.339-1.299c0.015-0.051,0.028-0.104,0.044-0.155
		c0.151-0.501,0.318-0.997,0.503-1.483c0.001-0.005,0.003-0.009,0.005-0.014c2.1-5.529,6.285-10.03,11.59-12.561
		c-0.038,0.006-0.072,0.017-0.11,0.023c3.009-1.453,6.383-2.267,9.947-2.267h5.728c12.651,0,22.906,10.257,22.906,22.908
		l-0.058,23.778h-51.483v-23.778c0-0.015,0.001-0.029,0.001-0.044C191.345,172.329,191.366,171.843,191.398,171.36z"/>
	
		<ellipse id="XMLID_26970_" transform="matrix(0.3827 -0.9239 0.9239 0.3827 -65.1754 327.6587)" style="fill:none;stroke:#A7A9AC;stroke-width:6;stroke-miterlimit:10;" cx="212.6" cy="212.6" rx="82.666" ry="82.667"/>
	<path id="XMLID_26969_" style="fill:none;stroke:#A7A9AC;stroke-width:6;stroke-miterlimit:10;" d="M277.171,212.6
		c0,35.662-28.91,64.571-64.571,64.571s-64.571-28.91-64.571-64.571s28.91-64.572,64.571-64.572S277.171,176.939,277.171,212.6z"/>
	<path id="XMLID_26968_" style="fill:none;stroke:#A7A9AC;stroke-width:6;stroke-miterlimit:10;" d="M256.838,212.6
		c0,24.432-19.806,44.238-44.238,44.238c-24.432,0-44.238-19.806-44.238-44.238s19.806-44.239,44.238-44.239
		C237.032,168.361,256.838,188.168,256.838,212.6z"/>
	<path id="XMLID_26967_" style="fill:none;stroke:#A7A9AC;stroke-width:6;stroke-miterlimit:10;" d="M240.858,212.6
		c0,15.606-12.651,28.257-28.258,28.257c-15.607,0-28.257-12.651-28.257-28.257c0-15.606,12.651-28.258,28.257-28.258
		C228.206,184.342,240.858,196.994,240.858,212.6z"/>
	<g id="XMLID_26953_">
		<g id="XMLID_26962_">
			
				<radialGradient id="XMLID_00000178901222942235976890000002464255509579165855_" cx="212.6" cy="-1352.5973" r="41.6213" gradientTransform="matrix(1 0 0 1.2327 0 1856.0817)" gradientUnits="userSpaceOnUse">
				<stop  offset="0" style="stop-color:#4F4F51"/>
				<stop  offset="0.6935" style="stop-color:#7C8080"/>
				<stop  offset="1" style="stop-color:#D1D3D4"/>
			</radialGradient>
			<path id="XMLID_26966_" style="fill:url(#XMLID_00000178901222942235976890000002464255509579165855_);" d="M186.829,193.505
				v-23.778c0-12.651,10.256-22.908,22.907-22.908h5.728c12.651,0,22.906,10.257,22.906,22.908l-0.058,23.778h17.921v-22.999
				c0-21.421-17.365-38.785-38.786-38.785h-9.696c-21.419,0-38.784,17.364-38.784,38.785v22.999H186.829z"/>
			<g id="XMLID_26963_">
				<path id="XMLID_26965_" style="fill:#E0E1E2;" d="M186.828,193.505v-23.778c0-9.125,5.349-16.982,13.07-20.664
					c-10.915,1.749-15.681,11.183-15.681,22.591v21.851H186.828z"/>
				<defs>
					
						<filter id="Adobe_OpacityMaskFilter_00000063633278474392692720000004783263236829569157_" filterUnits="userSpaceOnUse" x="192.635" y="131.721" width="63.598" height="61.784">
						<feFlood  style="flood-color:white;flood-opacity:1" result="back"/>
						<feBlend  in="SourceGraphic" in2="back" mode="normal"/>
					</filter>
				</defs>
				
					<mask maskUnits="userSpaceOnUse" x="192.635" y="131.721" width="63.598" height="61.784" id="XMLID_00000083811200721277263070000000295490951148155287_">
					<g id="XMLID_26132_" style="filter:url(#Adobe_OpacityMaskFilter_00000063633278474392692720000004783263236829569157_);">
						<defs>
							
								<filter id="Adobe_OpacityMaskFilter_00000067957040651595076950000015702876792389941381_" filterUnits="userSpaceOnUse" x="192.635" y="131.721" width="63.598" height="61.784">
								<feFlood  style="flood-color:white;flood-opacity:1" result="back"/>
								<feBlend  in="SourceGraphic" in2="back" mode="normal"/>
							</filter>
						</defs>
						
							<mask maskUnits="userSpaceOnUse" x="192.635" y="131.721" width="63.598" height="61.784" id="XMLID_00000083811200721277263070000000295490951148155287_">
							<g id="XMLID_26139_" style="filter:url(#Adobe_OpacityMaskFilter_00000067957040651595076950000015702876792389941381_);">
							</g>
						</mask>
						
							<linearGradient id="XMLID_00000178173682782732629720000015179565291535572913_" gradientUnits="userSpaceOnUse" x1="213.9768" y1="175.6989" x2="245.6427" y2="140.6998">
							<stop  offset="0" style="stop-color:#000000"/>
							<stop  offset="0.1662" style="stop-color:#030303"/>
							<stop  offset="0.2972" style="stop-color:#0D0D0D"/>
							<stop  offset="0.4161" style="stop-color:#1E1E1E"/>
							<stop  offset="0.5279" style="stop-color:#353535"/>
							<stop  offset="0.6348" style="stop-color:#545454"/>
							<stop  offset="0.738" style="stop-color:#797979"/>
							<stop  offset="0.8381" style="stop-color:#A5A5A5"/>
							<stop  offset="0.9333" style="stop-color:#D7D7D7"/>
							<stop  offset="1" style="stop-color:#FFFFFF"/>
						</linearGradient>
						
							<path id="XMLID_26133_" style="mask:url(#XMLID_00000083811200721277263070000000295490951148155287_);fill:url(#XMLID_00000178173682782732629720000015179565291535572913_);" d="
							M212.808,133.982c21.421,0,38.786,17.365,38.786,38.786v20.737h4.639v-22.999c0-21.421-17.365-38.785-38.786-38.785h-9.696
							c-5.362,0-10.471,1.088-15.116,3.057c2.534-0.521,5.158-0.795,7.846-0.795H212.808z"/>
					</g>
				</mask>
				
					<linearGradient id="XMLID_00000013880057383085758720000011730620305189928369_" gradientUnits="userSpaceOnUse" x1="213.9768" y1="175.6989" x2="245.6427" y2="140.6998">
					<stop  offset="0" style="stop-color:#4F4F51"/>
					<stop  offset="0.1785" style="stop-color:#525254"/>
					<stop  offset="0.319" style="stop-color:#5A5B5E"/>
					<stop  offset="0.4467" style="stop-color:#686A6C"/>
					<stop  offset="0.5667" style="stop-color:#7A7C7F"/>
					<stop  offset="0.6813" style="stop-color:#919396"/>
					<stop  offset="0.792" style="stop-color:#AEB0B3"/>
					<stop  offset="0.8974" style="stop-color:#D2D4D5"/>
					<stop  offset="1" style="stop-color:#FFFFFF"/>
				</linearGradient>
				<path id="XMLID_26964_" style="fill:url(#XMLID_00000013880057383085758720000011730620305189928369_);" d="M212.808,133.982
					c21.421,0,38.786,17.365,38.786,38.786v20.737h4.639v-22.999c0-21.421-17.365-38.785-38.786-38.785h-9.696
					c-5.362,0-10.471,1.088-15.116,3.057c2.534-0.521,5.158-0.795,7.846-0.795H212.808z"/>
			</g>
		</g>
		<path id="XMLID_26961_" style="fill:#FEC128;" d="M165.164,193.505c0.956,18.718-28.126,89.626,47.436,89.626
			c75.563,0,46.482-70.908,47.436-89.626H165.164z"/>
		
			<linearGradient id="XMLID_00000060002991119358079260000013408207546319359912_" gradientUnits="userSpaceOnUse" x1="160.4429" y1="238.3178" x2="264.7572" y2="238.3178">
			<stop  offset="0" style="stop-color:#C08329"/>
			<stop  offset="0.3065" style="stop-color:#CA974D"/>
			<stop  offset="0.4624" style="stop-color:#EDD089"/>
			<stop  offset="0.6398" style="stop-color:#EBC17D"/>
			<stop  offset="0.8011" style="stop-color:#F4E6D0"/>
			<stop  offset="1" style="stop-color:#C08329"/>
		</linearGradient>
		<path id="XMLID_26960_" style="fill:url(#XMLID_00000060002991119358079260000013408207546319359912_);" d="M165.164,193.505
			c0.956,18.718-28.126,89.626,47.436,89.626c75.563,0,46.482-70.908,47.436-89.626H165.164z"/>
		
			<linearGradient id="XMLID_00000177476675422897227610000016471828981536562821_" gradientUnits="userSpaceOnUse" x1="-3379.0684" y1="238.3178" x2="-3278.9436" y2="238.3178" gradientTransform="matrix(-1 0 0 1 -3116.4063 0)">
			<stop  offset="0" style="stop-color:#C08329"/>
			<stop  offset="0.3065" style="stop-color:#CA974D"/>
			<stop  offset="0.4624" style="stop-color:#EDD089"/>
			<stop  offset="0.6398" style="stop-color:#EBC17D"/>
			<stop  offset="0.8011" style="stop-color:#F4E6D0"/>
			<stop  offset="1" style="stop-color:#C08329"/>
		</linearGradient>
		<path id="XMLID_26959_" style="fill:url(#XMLID_00000177476675422897227610000016471828981536562821_);" d="M258.131,195.305
			c-0.917,17.966,26.996,86.026-45.531,86.026c-72.528,0-44.615-68.061-45.531-86.026H258.131z"/>
		<path id="XMLID_26958_" style="fill:#D4AD6F;" d="M221.525,231.1c0-4.662-3.996-8.44-8.924-8.44c-4.93,0-8.926,3.778-8.926,8.44
			c0,2.759,1.407,6.059,3.573,7.598l-3.191,23.184h17.087l-3.192-23.183C220.118,237.159,221.525,233.86,221.525,231.1z"/>
		<defs>
			
				<filter id="Adobe_OpacityMaskFilter_00000092438374228103747840000001234863771254515077_" filterUnits="userSpaceOnUse" x="163.426" y="195.963" width="82.007" height="66.81">
				<feFlood  style="flood-color:white;flood-opacity:1" result="back"/>
				<feBlend  in="SourceGraphic" in2="back" mode="normal"/>
			</filter>
		</defs>
		
			<mask maskUnits="userSpaceOnUse" x="163.426" y="195.963" width="82.007" height="66.81" id="XMLID_00000158739293202330396320000012148339282937898896_">
			<g id="XMLID_26124_" style="filter:url(#Adobe_OpacityMaskFilter_00000092438374228103747840000001234863771254515077_);">
				<defs>
					
						<filter id="Adobe_OpacityMaskFilter_00000054971477100244570590000014601554097301906610_" filterUnits="userSpaceOnUse" x="163.426" y="195.963" width="82.007" height="66.81">
						<feFlood  style="flood-color:white;flood-opacity:1" result="back"/>
						<feBlend  in="SourceGraphic" in2="back" mode="normal"/>
					</filter>
				</defs>
				
					<mask maskUnits="userSpaceOnUse" x="163.426" y="195.963" width="82.007" height="66.81" id="XMLID_00000158739293202330396320000012148339282937898896_">
					<g id="XMLID_26131_" style="filter:url(#Adobe_OpacityMaskFilter_00000054971477100244570590000014601554097301906610_);">
					</g>
				</mask>
				
					<linearGradient id="XMLID_00000090292996390948583840000003620945572100638087_" gradientUnits="userSpaceOnUse" x1="212.1484" y1="235.4848" x2="178.1609" y2="175.4403">
					<stop  offset="0" style="stop-color:#000000"/>
					<stop  offset="0.1662" style="stop-color:#030303"/>
					<stop  offset="0.2972" style="stop-color:#0D0D0D"/>
					<stop  offset="0.4161" style="stop-color:#1E1E1E"/>
					<stop  offset="0.5279" style="stop-color:#353535"/>
					<stop  offset="0.6348" style="stop-color:#545454"/>
					<stop  offset="0.738" style="stop-color:#797979"/>
					<stop  offset="0.8381" style="stop-color:#A5A5A5"/>
					<stop  offset="0.9333" style="stop-color:#D7D7D7"/>
					<stop  offset="1" style="stop-color:#FFFFFF"/>
				</linearGradient>
				
					<path id="XMLID_26130_" style="mask:url(#XMLID_00000158739293202330396320000012148339282937898896_);fill:url(#XMLID_00000090292996390948583840000003620945572100638087_);" d="
					M173.05,262.772c-10.02-21.196,1.12-51.538,0.522-62.6c0,0,71.794-3.029,71.861-4.21h-77.294
					C168.819,207.846,154.323,243.284,173.05,262.772z"/>
			</g>
		</mask>
		
			<linearGradient id="XMLID_00000150062320187779351460000003244516050393605300_" gradientUnits="userSpaceOnUse" x1="212.1484" y1="235.4848" x2="178.1609" y2="175.4403">
			<stop  offset="0" style="stop-color:#FFDE17"/>
			<stop  offset="0.1698" style="stop-color:#FFDE1E"/>
			<stop  offset="0.3034" style="stop-color:#FFDF2F"/>
			<stop  offset="0.4249" style="stop-color:#FFE145"/>
			<stop  offset="0.5391" style="stop-color:#FFE360"/>
			<stop  offset="0.6481" style="stop-color:#FFE77D"/>
			<stop  offset="0.7534" style="stop-color:#FFEC9A"/>
			<stop  offset="0.8556" style="stop-color:#FFF2BE"/>
			<stop  offset="0.953" style="stop-color:#FFF9E5"/>
			<stop  offset="1" style="stop-color:#FFFFFF"/>
		</linearGradient>
		<path id="XMLID_26957_" style="fill:url(#XMLID_00000150062320187779351460000003244516050393605300_);" d="M173.05,262.772
			c-10.02-21.196,1.12-51.538,0.522-62.6c0,0,71.794-3.029,71.861-4.21h-77.294C168.819,207.846,154.323,243.284,173.05,262.772z"/>
		<path id="XMLID_26956_" style="fill:#F5E286;" d="M260.035,193.505c0,0-6.388,35.774-7.237,42.52
			c-1.443,11.47-7.56,22.569-17.57,28.689c-12.723,7.777-27.186,9.149-41.726,9.586c-6.459,0.193-12.508-0.019-18.705-1.422
			c7.945,6.292,19.951,10.253,37.802,10.253C288.163,283.131,259.081,212.223,260.035,193.505z"/>
		
			<radialGradient id="XMLID_00000034080931321624963030000016292207919930113177_" cx="212.481" cy="237.5096" r="19.7406" gradientUnits="userSpaceOnUse">
			<stop  offset="0" style="stop-color:#4F4F51"/>
			<stop  offset="0.5164" style="stop-color:#282829"/>
			<stop  offset="1" style="stop-color:#000000"/>
		</radialGradient>
		<path id="XMLID_26955_" style="fill:url(#XMLID_00000034080931321624963030000016292207919930113177_);" d="M220.4,231.947
			c0-4.309-3.492-7.8-7.799-7.8c-4.309,0-7.8,3.492-7.8,7.8c0,2.55,1.229,4.808,3.122,6.231l-2.789,22.219h14.933l-2.789-22.218
			C219.17,236.755,220.4,234.497,220.4,231.947z"/>
		<path id="XMLID_26954_" style="fill:#B1B3B6;" d="M220.4,231.947c0-2.722-1.395-5.114-3.507-6.509
			c1.466,1.418,2.381,3.402,2.381,5.604c0,2.55-1.23,4.808-3.123,6.231l2.789,22.218h-13.694l-0.113,0.905h14.933l-2.789-22.218
			C219.17,236.755,220.4,234.497,220.4,231.947z"/>
	</g>
</g>
</svg>
