<?xml version="1.0" encoding="utf-8"?>
<!-- Generator: Adobe Illustrator 27.5.0, SVG Export Plug-In . SVG Version: 6.00 Build 0)  -->
<svg version="1.1" id="Layer_1" xmlns="http://www.w3.org/2000/svg" xmlns:xlink="http://www.w3.org/1999/xlink" x="0px" y="0px"
	 viewBox="0 0 3000 2000" style="enable-background:new 0 0 3000 2000;" xml:space="preserve">
<g>
	<rect style="fill:#FFFFFF;" width="3000" height="2000"/>
	<g>
		<g>
			<path style="fill:none;stroke:#F0F0F0;stroke-width:4.2643;stroke-miterlimit:10;" d="M444.755,1182.536
				c-12.613,251.635,155.406,380.838,397.742,411.529c271.842,34.428,550.96-12.014,821.65-35.628
				c101.972-8.896,204.28-15.582,306.711-15.024c96.519,0.526,201.006,27.135,295.826,12.409
				c237.022-36.811,359.167-281.726,322.235-495.327c-22.901-132.448-108.908-259.035-261.133-250.611
				c-106.951,5.927-201.771,52.396-303.935,77.57c-134.543,33.152-277.533,27.799-409.467-15.324
				c-65.9-21.583-128.749-52.188-192.88-78.994c-127.732-53.31-262.806-91.771-400.356-93.887
				c-137.505-2.158-278.106,34.015-389.296,118.619C514.589,907.092,451.797,1042.076,444.755,1182.536z"/>
			<path style="fill:#F0F0F0;" d="M2544.994,1258.44c12.547,248.587-154.594,376.225-395.664,406.544
				c-270.421,34.01-548.081-11.868-817.356-35.196c-101.439-8.788-203.213-15.394-305.108-14.842
				c-96.015,0.52-199.956,26.806-294.28,12.259c-235.784-36.366-357.291-278.313-320.551-489.331
				c17.165-98.586,55.068-207.647,140.27-267.513c85.696-60.211,185.376-44.808,279.324-18.665
				c171.093,47.609,357.507,136.952,538.786,101.99c103.896-20.038,194.442-78.869,293.114-114.078
				c98.379-35.104,203.49-56.971,308.084-58.601c136.787-2.132,276.653,33.603,387.262,117.182
				C2475.525,986.333,2537.989,1119.681,2544.994,1258.44z"/>
		</g>
		<g>
			<g>
				<path style="fill:#6F3428;" d="M2371.886,1466.914c0,0-94.227,66.451-202.47,8.87l101.235-56.49L2371.886,1466.914z"/>
				<path style="fill:#6F3428;" d="M1678.122,1022.783c0,0-91.683,171.938-62.984,222.726l104.391-57.952L1678.122,1022.783z"/>
				<path style="fill:#F9B384;" d="M1638.649,1197.335c-11.471-8.571-22.516-18.209-33.134-28.699
					c-20.895-20.725-40.128-44.776-57.654-70.447c0-0.043,0-0.043,0-0.043c-11.77-17.228-22.771-35.223-32.963-53.432
					c-29.467-52.537-52.494-106.907-68.869-150.446c-17.1-45.415-27.036-79.104-29.68-86.822c-0.298-0.895-0.512-1.45-0.64-1.62
					l49.594-142.386c23.965-38.379,37.398,86.182,37.398,86.182c6.61-3.88,14.627-15.266,19.36-21.407
					c5.33-6.951,9.424,4.051,10.149,7.974c4.136,22.899-14.285,66.438-14.285,66.438l118.25,173.302
					c7.249,10.618,15.351,20.64,24.136,29.893c5.629,5.97,11.599,11.641,17.825,16.972
					C1688.626,1067.358,1687.56,1153.284,1638.649,1197.335z"/>
				<path style="opacity:0.6;fill:#E28B6D;" d="M1638.649,1197.335c-11.471-8.571-22.516-18.209-33.134-28.699
					c37.114-42.515,65.5-113.133,72.622-145.84c5.629,5.97-6.226-5.331,0,0C1688.626,1067.358,1687.56,1153.284,1638.649,1197.335z"
					/>
				<path style="fill:#EE6F57;" d="M2371.901,1466.926c-64.604-12.58-115.521-11.77-158.505-3.241
					c-15.607,3.113-30.149,7.207-43.965,12.111l-13.006,46.609l-25.672,92.152l-16.673,59.871l-15.181,54.37l-8.529,30.661h-458.245
					l72.494-472.659l-89.466-41.279c5.757-8.486,11.044-18.465,15.949-29.509c27.164-61.193,41.748-153.943,47.036-193.217
					c25.586,22.004,55.735,38.464,88.613,47.846c39.019,11.13,86.054,20.767,130.062,19.744c1.535-0.043,3.028-0.085,4.52-0.128
					c101.79-3.966,147.205,26.951,147.205,26.951c23.027,4.563,83.069,27.633,135.478,50.703
					c23.113,10.107,44.733,20.256,61.108,28.784c44.008,22.985,75.948,63.837,87.803,112.067L2371.901,1466.926z"/>
				<path style="opacity:0.6;fill:#AE5140;" d="M2213.396,1463.685c-15.607,3.113-30.149,7.207-43.965,12.111l27.59-98.975
					L2213.396,1463.685z"/>
				<path style="opacity:0.3;fill:#EE6F57;" d="M1547.861,1098.146c-11.77-17.228-20.993-32.793-43.113-72.049
					C1539.445,1014.221,1560.185,1065.354,1547.861,1098.146z"/>
				<path style="opacity:0.6;fill:#AE5140;" d="M2161.402,1504.565l-30.65,109.992l-16.673,59.871l-411.21,31.343l-46.737-81.79
					C1956.768,1617.791,2082.566,1574.942,2161.402,1504.565z"/>
				<path style="opacity:0.6;fill:#E28B6D;" d="M1446.028,894.268c-17.1-45.415-27.036-79.104-29.68-86.822l76.942-47.651
					C1496.233,803.164,1461.935,864.972,1446.028,894.268z"/>
				<path style="fill:#AE5140;" d="M1932.64,1196.966c4.49,15.963,14.146,29.901,26.811,39.971
					c12.711,10.047,28.02,16.657,43.994,19.509c15.975,2.903,32.597,2.144,48.349-2.072c7.892-2.071,15.562-5.088,22.802-8.973
					c7.344-3.727,14.168-8.454,20.689-13.664l2.279,2.433c-5.878,6.277-12.693,11.696-19.993,16.396
					c-7.397,4.548-15.359,8.242-23.672,10.954c-16.655,5.376-34.704,6.458-51.979,3.275c-17.229-3.209-33.915-10.609-47.105-22.349
					c-6.575-5.843-12.337-12.641-16.729-20.245c-4.293-7.643-7.403-15.955-8.703-24.525L1932.64,1196.966z"/>
			</g>
			<g>
				<path style="fill:#F9B384;" d="M2119.538,1034.053l-12.75,99.657c-4.733,37.228-36.972,64.861-74.498,63.837
					c-40.213-1.066-71.214-34.115-71.214-72.963c0-3.795,0.299-7.676,0.895-11.557l2.303-14.584l8.998-56.844l50.66-2.601
					L2119.538,1034.053z"/>
				<path style="fill:#102048;" d="M1942.113,869.865c1.422-14.692,8.287-32.204,16.122-48.083
					c14.972-30.346,43.951-51.423,77.443-56.252c50.315-7.255,115.369-0.181,150.796,48.142
					c39.941,54.48,6.749,163.407-36.071,172.699C2107.583,995.662,1942.113,869.865,1942.113,869.865z"/>
				<path style="fill:#E28B6D;" d="M2073.27,1059.639c-17.1,16.204-56.503,54.114-111.299,53.39l11.301-71.428l50.66-2.601
					L2073.27,1059.639z"/>
				<path style="fill:#F9B384;" d="M2146.19,895.548l-7.633,39.701l-1.876,9.722l-7.505,39.062l-4.307,22.388l-5.33,27.633
					l-26.055,15.65c0,0-7.121,4.776-20.213,9.936c0,0,0,0.043-0.042,0.043c-19.744,7.846-53.048,16.546-95.777,10.917
					c-2.985-0.384-5.799-1.066-8.443-2.004c-20.128-6.866-30.447-28.059-34.968-54.456c-3.326-19.403-3.582-41.62-2.345-63.069
					c1.919-33.646,7.505-65.415,10.405-81.193c44.818-40.042,106.011-47.334,151.384-56.204L2146.19,895.548z"/>
				<path style="fill:#102048;" d="M1942.113,869.865c71.39-56.194,167.561,0.733,167.561,0.733s-14.706,88.502,13.723,81.196
					c28.429-7.305,57.278-66.473,57.278-66.473l-65.073-93.815l-142.346,24.52L1942.113,869.865z"/>
				<path style="fill:#F9B384;" d="M2119.717,954.702c13.985-24.563,41.218-32.437,55.853-13.81
					c14.635,18.628,15.198,77.246-56.778,64.586L2119.717,954.702z"/>
				<g>
					<path style="fill:#E28B6D;" d="M2000.035,935.301c-4.632,12.522-11.803,23.673-16.478,35.406
						c-0.54,1.42-1.235,3.047-1.575,4.302c-0.382,1.245-0.577,2.451-0.37,3.367c0.034,0.992,0.599,1.682,1.291,2.498
						c0.865,0.712,1.931,1.43,3.276,1.937c5.372,2.064,12.024,2.568,18.495,3.212l0.063,2.5c-6.555,0.864-13.298,1.645-20.443-0.42
						c-1.787-0.472-3.606-1.412-5.309-2.722c-1.606-1.43-3.189-3.502-3.5-5.831c-0.487-2.292-0.104-4.434,0.414-6.306
						c0.518-1.904,1.09-3.315,1.761-4.934c5.251-12.598,13.051-23.212,20.138-34.125L2000.035,935.301z"/>
					<path style="fill:#102048;" d="M2047.895,937.937c-1.747,5.905-6.561,9.686-10.752,8.447c-4.191-1.24-6.173-7.032-4.426-12.937
						c1.747-5.905,6.561-9.686,10.752-8.447C2047.66,926.241,2049.642,932.033,2047.895,937.937z"/>
					
						<ellipse transform="matrix(0.2837 -0.9589 0.9589 0.2837 513.4047 2551.4714)" style="fill:#102048;" cx="1964.48" cy="932.098" rx="11.15" ry="7.914"/>
					<path style="fill:#102048;" d="M2021.219,915.159c3.599-3.422,7.862-6.262,12.671-8.161c4.788-1.917,10.201-2.73,15.509-2.084
						c5.315,0.632,10.363,2.769,14.537,5.799c4.201,3.018,7.629,6.832,10.274,11.04l-1.88,1.648
						c-3.787-2.963-7.48-5.77-11.409-7.948c-3.922-2.17-8.05-3.674-12.312-4.223c-4.263-0.584-8.646-0.16-13.002,0.949
						c-4.36,1.13-8.632,2.991-12.963,5.034L2021.219,915.159z"/>
					<path style="fill:#102048;" d="M1983.64,915.504c-3.485-5.55-9.175-8.197-14.995-8.182c-2.906,0.006-5.825,0.691-8.627,1.915
						c-2.813,1.237-5.474,3.008-8.27,5.042l-1.95-1.565c1.659-3.309,4.235-6.275,7.525-8.407c3.271-2.151,7.276-3.396,11.338-3.352
						c4.046,0.042,8.143,1.314,11.36,3.809c3.229,2.434,5.555,6.113,5.995,9.959L1983.64,915.504z"/>
					<path style="fill:#FFFFFF;" d="M1972.848,1006.967l46.408,0.977c0,0-25.729,34.898-44.624,2.42L1972.848,1006.967z"/>
					<path style="fill:#E28B6D;" d="M2130.836,973.434c0.027-4.002,0.738-8.029,2.17-11.913c1.418-3.875,3.671-7.643,7.02-10.621
						c3.308-2.979,7.97-4.869,12.532-4.646c4.572,0.149,8.617,2.197,11.658,4.887l-1.254,2.163
						c-3.621-1.09-7.101-1.829-10.291-1.434c-3.173,0.378-5.996,1.708-8.454,3.821c-2.48,2.099-4.496,4.975-6.246,8.098
						c-1.74,3.146-3.16,6.57-4.679,10.116L2130.836,973.434z"/>
					<circle style="opacity:0.3;fill:#EE6F57;" cx="2072.997" cy="987.339" r="32.69"/>
					<path style="opacity:0.3;fill:#EE6F57;" d="M1956.981,982.924c0,14.627-9.68,27.036-22.942,31.215
						c-3.326-19.403-3.582-41.62-2.345-63.069C1946.193,954.438,1956.981,967.402,1956.981,982.924z"/>
				</g>
			</g>
		</g>
		<g>
			<path style="fill:#102048;" d="M1299.253,846.906c0,0,93.075,45.558,75.821,121.143l-61.559,17.232L1299.253,846.906z"/>
			<path style="fill:#F9B384;" d="M1299.253,846.906c9.992-9.836,61.21-66.433,59.423-137.167
				c-1.355-53.639,22.427-29.411,25.487,7.605c0,0,13.077-75.703,49.14-68.03l-10.597,14.506c0,0,13.674-25.636,24.709-18.777
				c11.034,6.859,1.037,28.794,1.037,28.794s5.151-19.016,14.608-20.468c9.457-1.452,18.141,28.345-3.019,106.102
				c0,0,22.926-22.728,31.982-26.565c9.056-3.837,8.446,55.649-55.809,118.96c-64.255,63.311-109.71,112.278-109.71,112.278
				L1299.253,846.906z"/>
			<path style="fill:#708CD5;" d="M924.23,1157.037c2.258,3.492,375.023-310.131,375.023-310.131l75.821,121.143l-380.482,448.045
				L924.23,1157.037z"/>
			<g>
				<path style="fill:#E28B6D;" d="M1433.961,649.825c-4.443,6.849-8.552,13.967-12.331,21.203
					c-3.72,7.275-7.251,14.639-10.188,22.242c-3.119,7.531-5.619,15.293-7.708,23.157l-1.531,5.916l-1.177,5.995
					c-1.005,3.976-1.217,8.056-1.984,12.103l-1.664-0.091c0.105-8.297,0.865-16.66,2.734-24.794
					c1.838-8.129,4.259-16.145,7.408-23.857c3.212-7.681,6.731-15.243,10.955-22.408c4.202-7.176,8.794-14.099,14.168-20.487
					L1433.961,649.825z"/>
				<path style="fill:#E28B6D;" d="M1449.257,674.048c-1.24,6.763-2.696,13.471-4.194,20.165c-1.448,6.707-3.17,13.344-4.701,20.028
					l-5.08,19.927c-1.787,6.619-3.562,13.239-5.547,19.819l-1.63-0.347c0.888-6.838,2.195-13.59,3.552-20.328
					c1.425-6.722,2.981-13.412,4.604-20.084c1.754-6.639,3.383-13.309,5.313-19.902c1.885-6.604,3.841-13.188,6.072-19.701
					L1449.257,674.048z"/>
				<path style="fill:#E28B6D;" d="M1471.87,656.439c2.425,23.32,1.367,46.853-2.075,70.047c-0.946,5.787-1.949,11.576-3.344,17.287
					c-0.656,2.864-1.374,5.714-2.193,8.541l-0.588,2.126l-0.269,0.987c0.037-0.095,0.019-0.339-0.085-0.492
					c-0.126-0.315-0.688-0.403-0.97-0.192l1.496-1.324c4.373-3.868,8.775-7.702,13.246-11.474l6.785-5.591
					c1.201-0.949,2.19-1.759,3.609-2.79c2.001-1.369,4.886-1.131,6.647,0.575c0.895,0.745,1.485,2.212,1.586,2.998l0.429,2.269
					c0.159,1.517,0.42,3.035,0.438,4.551c0.087,1.518,0.138,3.032,0.05,4.538c-0.03,1.51-0.087,3.017-0.288,4.505
					c-0.534,5.993-1.946,11.82-3.74,17.474c-3.67,11.299-8.981,21.921-15.169,31.913c-6.235,9.976-13.327,19.334-20.768,28.367
					c-3.759,4.485-7.777,8.741-11.648,13.116l-12.228,12.546l-1.192-1.166l11.701-12.929c3.685-4.49,7.515-8.859,11.073-13.438
					c7.18-9.103,13.995-18.494,19.911-28.414c5.81-9.956,11.05-20.284,14.462-31.205c1.689-5.448,2.995-11.025,3.453-16.651
					c0.183-1.404,0.224-2.808,0.241-4.211c0.076-1.407,0.016-2.802-0.073-4.193c-0.021-1.402-0.276-2.761-0.423-4.14l-0.39-2.022
					c-0.126-0.646-0.152-0.584-0.346-0.826c-0.34-0.344-0.993-0.433-1.416-0.126l-3.313,2.541l-6.738,5.478
					c-4.459,3.711-8.868,7.501-13.247,11.323l-1.797,1.546c-1.452,1.167-3.904,0.637-4.772-0.952
					c-0.492-0.772-0.597-1.798-0.376-2.594l0.313-1.118l0.59-2.081c0.822-2.764,1.544-5.558,2.208-8.369
					c1.375-5.608,2.507-11.28,3.552-16.97c1.96-11.407,3.22-22.947,3.92-34.523c0.697-11.569,0.958-23.217,0.081-34.768
					L1471.87,656.439z"/>
			</g>
		</g>
		<g>
			<g>
				<path style="fill:#FBC343;" d="M773.705,1429.364c0,0-128.789-50.8-181.382,46.392c-66.132,122.21,33.235,265.81,33.235,265.81
					h174.803L773.705,1429.364z"/>
				<path style="fill:#102048;" d="M647.628,1469.431c-3.284,3.399-6.082,7.239-8.598,11.239c-2.536,3.994-4.632,8.263-6.535,12.599
					c-3.774,8.695-6.651,17.788-8.646,27.076c-4.019,18.575-5.303,37.704-4.411,56.7c0.829,19.018,4.023,37.894,8.77,56.35
					c4.845,18.45,11.578,36.39,19.584,53.784l-1.491,0.745c-2.182-4.287-4.488-8.525-6.44-12.931
					c-0.996-2.193-2.076-4.352-3.003-6.577l-2.826-6.66c-3.541-8.972-6.732-18.094-9.417-27.378
					c-5.228-18.597-8.59-37.783-9.417-57.138c-0.839-19.328,0.554-38.85,5.143-57.711c2.273-9.423,5.39-18.667,9.527-27.462
					c2.123-4.368,4.44-8.657,7.209-12.667c2.728-4.027,5.806-7.844,9.39-11.166L647.628,1469.431z"/>
			</g>
			<path style="fill:#AE5140;" d="M1105.912,1003.142c42.233,25.773,71.43,10.449,79.958-17.368
				c8.529-27.818,39.706-132.611-90.624-115.718c0,0-159.714-64.396-227.299,30.611c-59.623,83.814-4.918,141.751-96.02,211.245
				c-63.525,48.458-135.541,133.598,7.315,279.203l154.938-42.68L1105.912,1003.142z"/>
			<path style="fill:#6F3428;" d="M1057.795,1124.658c3.156,14.746,37.335,52.926,51.01,67.247
				c41.344,43.297,50.466,124.523-67.414,149.345l-66.319-154.483L1057.795,1124.658z"/>
			<polygon style="fill:#F9B384;" points="1063.674,1143.975 1049.729,1208.154 1028.066,1308.025 907.173,1282.481 
				935.616,1086.62 1058.898,1141.843 			"/>
			<path style="fill:#E28B6D;" d="M1138.058,1017.089c0,0,34.889,39.118,33.663,49.075c-1.226,9.957-33.663,27.797-33.663,27.797
				V1017.089z"/>
			<path style="fill:#E28B6D;" d="M1063.674,1143.975l-13.944,64.178c-37.185-19.786-64.306-68.741-64.306-68.741l73.475,2.431
				L1063.674,1143.975z"/>
			<path style="fill:#F9B384;" d="M1146.231,1106.108c-4.904,37.185-17.271,65.756-43.709,68.315
				c-73.091,7.079-178.292-74.796-178.292-74.796l5.672-149.934l79.487-49.04l128.655,23.88
				c1.535,16.929,9.424,68.698,10.703,120.766C1149.259,1066.279,1148.705,1087.303,1146.231,1106.108z"/>
			<path style="fill:#AE5140;" d="M1158.257,949.692l-15.859,12.213c-82.685-64.519-65.548,28.426-73.223,58.191
				c-7.676,29.765-46.865,21.919-77.44,2.686l-5.458,41.663l-91.896,2.9l-5.33-116.459l91.641-71.641l169.635,33.091
				L1158.257,949.692z"/>
			<path style="fill:#AE5140;" d="M1039.539,1382.117c45.137-24.215,32.344-87.419,14.773-109.046
				c-17.571-21.627-92.236-57.924-101.291-126.025c-5.037-37.88,33.256-82.6,33.256-82.6l-77.682-41.68l-79.601,125.151
				l60.056,214.934L1039.539,1382.117z"/>
			<path style="fill:#708CD5;" d="M1095.784,1729l-378.886,0.256c-16.546-242.598,43.923-366.647,96.203-427.585
				c32.921-38.337,82.643-57.313,132.792-51.172c43.624,5.373,81.491,26.098,119.87,116.416l-179.358,83.41l115.137,202.726
				c11.557,20.384,28.315,37.356,48.528,49.211L1095.784,1729z"/>
			<path style="fill:#1F3C88;" d="M886.405,1450.325c0,0,56.376,225.653,77.27,255.349c21.753,30.916,68.453,23.151,149.849,23.326
				c252.065,0.542,0,0,0,0l-102.826-229.08L886.405,1450.325"/>
			<path style="fill:#708CD5;" d="M1346.375,1667.663l-16.29,59.957l-216.561,1.38h-17.74l-45.714-26.737
				c-20.213-11.855-36.972-28.827-48.528-49.211l-115.137-202.726l179.358-83.41c19.275,45.245,38.635,108.016,58.891,195.008
				c2.729,11.727,10.874,21.535,21.919,26.354L1346.375,1667.663z"/>
			<path style="fill:#F9B384;" d="M1010.698,1039.269c-6.512-36.127-49.377-40.914-56.84-16.503
				c-7.463,24.41-5.642,66.351,48.195,63.866L1010.698,1039.269z"/>
			<path style="fill:#E28B6D;" d="M993.497,1042.108l-6.71-7.661c-2.229-2.385-4.538-4.685-6.941-6.054
				c-2.45-1.369-4.391-1.762-6.643-0.557c-2.308,1.172-4.519,3.672-6.81,6.232l-2.236-1.118c0.953-3.506,2.51-7.126,6.01-9.841
				c1.675-1.411,4.162-2.165,6.544-2.19c2.396,0.125,4.613,0.876,6.364,1.988c3.573,2.196,6.026,5.136,8.032,8.203
				c1.993,3.08,3.543,6.345,4.58,9.791L993.497,1042.108z"/>
			<path style="opacity:0.2;fill:#EE6F57;" d="M1144.338,1118.01c-1.834,0.384-36.209-9.485-36.209-41.858
				c0-17.271,15.117-32.004,32.387-32.004c2.857,0,5.629,0.384,8.23,1.151C1149.259,1066.279,1148.816,1097.709,1144.338,1118.01z"
				/>
		</g>
		<g>
			<polygon style="fill:#1F3C88;" points="1768.907,1731.316 1318.192,1731.316 1403.334,1364.599 1854.05,1364.599 			"/>
			<path style="opacity:0.6;fill:#102048;" d="M1768.907,1731.316l85.142-366.718c-128.827,298.117-320.261,331.159-535.857,366.718
				"/>
			
				<ellipse transform="matrix(0.3867 -0.9222 0.9222 0.3867 -454.7758 2412.0708)" style="fill:#FFFFFF;" cx="1586.121" cy="1547.957" rx="32.132" ry="27.037"/>
		</g>
		<g>
			<path style="fill:#F9B384;" d="M2327.552,1460.103l-1.365,37.27l-6.141,167.034v0.213c-0.512,12.623-3.838,24.818-9.509,35.821
				c-5.672,10.917-13.774,20.639-23.838,28.358h-187.802l-392.234,1.322c-6.993,0-14.157-16.29-3.795-24.349
				c22.9-17.91,58.762-37.611,83.709-53.56c13.774-8.785,30.191-12.623,46.396-10.533c26.993,3.454,65.927,17.143,114.37,2.857
				c8.401-2.473,16.93-4.392,25.544-5.714l157.865-24.264l62.132-9.552l1.749-105.244l0.554-31.855
				c5.927-1.578,11.983-2.985,18.209-4.222C2246.018,1457.203,2283.246,1455.199,2327.552,1460.103z"/>
			<path style="opacity:0.6;fill:#E28B6D;" d="M2327.552,1460.103l-1.365,37.27c-22.942-8.065-111.555-33.262-131.001-29.467l0,0
				c5.927-1.578,11.983-2.985,18.209-4.222C2246.018,1457.203,2283.246,1455.199,2327.552,1460.103z"/>
			<path style="opacity:0.3;fill:#EE6F57;" d="M2320.047,1664.407v0.213c-0.512,12.623-3.838,24.818-9.509,35.821
				c-5.672,10.917-13.774,20.639-23.838,28.358h-57.057C2239.621,1673.917,2281.199,1656.859,2320.047,1664.407z"/>
			<path style="fill:#E28B6D;" d="M2169.031,1607.424c6.671-2.691,13.672-4.969,20.935-5.813c7.223-1.133,14.614-1.076,21.883-0.296
				c7.283,0.762,14.456,2.467,21.284,5.035c6.855,2.522,13.331,5.897,19.168,10.401l-1.383,2.083
				c-6.27-2.925-12.921-5.228-19.541-7.147c-6.649-1.898-13.419-3.296-20.254-4.046c-6.825-0.807-13.727-1.07-20.616-0.596
				c-6.921,0.274-13.754,1.506-20.707,2.76L2169.031,1607.424z"/>
		</g>
		<g>
			<rect x="360" y="1729.17" style="fill:#D3DFFF;" width="2276.126" height="50.435"/>
			
				<line style="fill:none;stroke:#102048;stroke-width:6;stroke-miterlimit:10;" x1="360" y1="1729.255" x2="2636.128" y2="1729.255"/>
		</g>
		<g>
			<path style="fill:#C6EAE9;" d="M700.623,840.236c-17.468-94.256-108.039-156.505-202.295-139.037S341.822,809.238,359.29,903.494
				c17.468,94.256,108.039,156.506,202.295,139.038c23.589-4.372,45.172-13.323,64.004-25.764l60.046,26.177l-28.894-52.548
				C693.031,951.519,711.058,896.542,700.623,840.236z"/>
			<g>
				<path style="fill:#FFFFFF;" d="M464.998,932.454v-52.81l-3.08,1.527c-3.165,1.569-6.589,2.364-10.177,2.364
					c-12.733,0-23.092-10.359-23.092-23.092c0-12.748,10.359-23.12,23.092-23.12c3.573,0,7.001,0.788,10.19,2.343l3.067,1.496
					v-52.757h45.736c-0.719,2.452-1.082,4.997-1.082,7.602c0,15.1,12.285,27.384,27.384,27.384c15.1,0,27.385-12.284,27.385-27.384
					c0-2.604-0.363-5.149-1.082-7.602h45.736v46.159c-2.851-1-5.863-1.505-8.992-1.505c-15.1,0-27.384,12.285-27.384,27.385
					c0,15.085,12.285,27.357,27.384,27.357c3.061,0,6.117-0.525,8.992-1.534v46.188H464.998z"/>
				<path style="fill:#8CBFBE;" d="M606.942,790.537v41.182c-2.216-0.527-4.507-0.792-6.86-0.792
					c-16.275,0-29.516,13.241-29.516,29.516c0,16.26,13.241,29.488,29.516,29.488c2.311,0,4.619-0.277,6.86-0.817v41.207H467.129
					v-47.241v-6.874l-6.159,3.054c-2.867,1.422-5.972,2.143-9.23,2.143c-11.557,0-20.96-9.403-20.96-20.96
					c0-11.573,9.403-20.988,20.96-20.988c3.247,0,6.36,0.716,9.255,2.127l6.133,2.991v-6.824v-47.213h40.9
					c-0.339,1.789-0.51,3.616-0.51,5.469c0,16.275,13.241,29.516,29.516,29.516c16.275,0,29.516-13.241,29.516-29.516
					c0-1.854-0.171-3.68-0.51-5.469H606.942 M611.206,786.273h-50.893c1.279,3.004,1.975,6.285,1.975,9.734
					c0,13.933-11.319,25.252-25.252,25.252c-13.933,0-25.252-11.319-25.252-25.252c0-3.448,0.695-6.73,1.975-9.734h-50.893v51.477
					c-3.365-1.641-7.12-2.559-11.124-2.559c-13.933,0-25.224,11.291-25.224,25.252c0,13.933,11.291,25.224,25.224,25.224
					c4.005,0,7.759-0.918,11.124-2.586v51.505h148.341v-51.533c-3.337,1.669-7.12,2.614-11.124,2.614
					c-13.961,0-25.252-11.291-25.252-25.224c0-13.961,11.291-25.252,25.252-25.252c4.005,0,7.787,0.918,11.124,2.586V786.273
					L611.206,786.273z"/>
			</g>
		</g>
		<g>
			<path style="fill:#D3DFFF;" d="M2351.844,842.334c5.78-95.687,88.036-168.571,183.723-162.791
				c95.687,5.78,168.571,88.035,162.791,183.722c-5.78,95.687-88.035,168.571-183.722,162.791
				c-23.947-1.447-46.465-7.684-66.679-17.722l-56.384,33.341l22.234-55.694C2373.023,951.847,2348.391,899.495,2351.844,842.334z"
				/>
			<g>
				<path style="fill:#FFFFFF;" d="M2554.636,925.991c-4.514-9.454-14.027-15.49-24.6-15.49c-10.568,0-20.062,6.036-24.549,15.49
					h-47.595v-52.768l-2.895,1.447c-3.189,1.595-6.631,2.403-10.229,2.403c-12.821,0-23.252-10.419-23.252-23.225
					c0-12.821,10.431-23.252,23.252-23.252c3.636,0,7.077,0.799,10.229,2.375l2.895,1.447v-52.741h51.158l-0.934-2.662
					c-0.866-2.469-1.306-5.053-1.306-7.681c0-12.821,10.419-23.252,23.225-23.252c12.821,0,23.252,10.431,23.252,23.252
					c0,2.628-0.439,5.213-1.306,7.681l-0.936,2.663h51.159v144.314H2554.636z"/>
				<path style="fill:#708CD5;" d="M2530.036,750.082c11.718,0,21.252,9.534,21.252,21.252c0,2.403-0.401,4.764-1.192,7.018
					l-1.869,5.325h5.643h46.337v140.314h-44.34c-5.047-9.492-14.913-15.49-25.831-15.49c-10.915,0-20.761,5.997-25.782,15.49
					h-44.361v-47.533v-6.472l-5.789,2.894c-2.909,1.454-6.05,2.192-9.336,2.192c-11.718,0-21.252-9.521-21.252-21.224
					c0-11.718,9.534-21.252,21.252-21.252c3.323,0,6.463,0.728,9.336,2.164l5.789,2.894v-6.472v-47.505h46.337h5.644l-1.87-5.325
					c-0.791-2.254-1.193-4.615-1.193-7.018C2508.812,759.616,2518.333,750.082,2530.036,750.082 M2530.036,746.082
					c-13.933,0-25.224,11.319-25.224,25.252c0,2.92,0.5,5.729,1.418,8.343h-50.337v51.505c-3.337-1.669-7.119-2.586-11.124-2.586
					c-13.961,0-25.252,11.291-25.252,25.252c0,13.933,11.291,25.224,25.252,25.224c4.005,0,7.787-0.946,11.124-2.614v51.533h50.893
					c3.782-9.094,12.765-15.49,23.25-15.49c10.512,0,19.495,6.396,23.305,15.49h50.865V779.677h-50.337
					c0.918-2.614,1.418-5.423,1.418-8.343C2555.288,757.401,2543.997,746.082,2530.036,746.082L2530.036,746.082z"/>
			</g>
		</g>
		<g>
			<path style="opacity:0.2;fill:#FBC343;" d="M1536.232,442.503c0,43.772-29.932,85.196-69.64,97.547h-53.711
				c-41.344-11.319-71.742-52.611-71.742-97.547c0-53.874,43.673-97.547,97.547-97.547S1536.232,388.629,1536.232,442.503z"/>
			<g>
				
					<line style="fill:none;stroke:#FBC343;stroke-width:8.5287;stroke-miterlimit:10;" x1="1438.686" y1="247.132" x2="1438.686" y2="319.967"/>
				
					<line style="fill:none;stroke:#FBC343;stroke-width:8.5287;stroke-miterlimit:10;" x1="1370.362" y1="340.648" x2="1306.52" y2="292.991"/>
				
					<line style="fill:none;stroke:#FBC343;stroke-width:8.5287;stroke-miterlimit:10;" x1="1507.009" y1="340.648" x2="1570.851" y2="292.991"/>
				
					<line style="fill:none;stroke:#FBC343;stroke-width:8.5287;stroke-miterlimit:10;" x1="1403.932" y1="327.16" x2="1390.616" y2="292.991"/>
				
					<line style="fill:none;stroke:#FBC343;stroke-width:8.5287;stroke-miterlimit:10;" x1="1473.439" y1="327.16" x2="1486.755" y2="292.991"/>
			</g>
			<g>
				<path style="fill:#FBC343;" d="M1501.059,454.867c0-33.049-29.634-59.652-65.505-58.019
					c-31.819,1.448-57.854,25.883-59.187,55.526c-0.744,16.54,5.954,31.604,17.224,42.57c11.951,11.63,19.289,26.696,19.289,42.794
					v2.311h53.711v-4.79c0-15.379,6.824-29.829,18.012-41.141C1494.816,483.792,1501.059,470.019,1501.059,454.867z"/>
				<path style="fill:#FBC343;" d="M1438.686,587.748L1438.686,587.748c-14.832,0-26.855-12.023-26.855-26.855v-1.326h53.711v1.326
					C1465.541,575.724,1453.517,587.748,1438.686,587.748z"/>
			</g>
			<circle style="opacity:0.8;fill:#FFFFFF;" cx="1418.679" cy="446.314" r="14.747"/>
		</g>
		<g>
			<g>
				<path style="fill:#F0F0F0;" d="M1977.353,602.968v-33.025h-15.761c-2.042-9.289-5.764-17.951-10.837-25.654l11.294-11.294
					l-23.352-23.352l-11.573,11.573c-7.666-4.789-16.225-8.274-25.375-10.121v-16.756h-33.025v17.335
					c-8.806,2.095-17.028,5.702-24.376,10.542l-12.572-12.572l-23.352,23.352l12.851,12.851c-4.565,7.307-7.933,15.429-9.838,24.098
					h-18.317v33.025h18.317c1.905,8.668,5.273,16.791,9.838,24.097l-12.851,12.851l23.352,23.352l12.572-12.572
					c7.348,4.84,15.571,8.447,24.376,10.542v17.335h33.025v-16.756c9.15-1.847,17.709-5.332,25.375-10.121l11.573,11.573
					l23.352-23.352l-11.294-11.294c5.073-7.703,8.795-16.365,10.837-25.654H1977.353z"/>
				
					<ellipse transform="matrix(0.7071 -0.7071 0.7071 0.7071 137.4863 1504.8317)" style="fill:#FFFFFF;" cx="1885.236" cy="586.455" rx="51.548" ry="51.548"/>
			</g>
			<g>
				<path style="fill:#F0F0F0;" d="M2145.155,550.852l7.422-22.738l-10.852-3.542c0.682-6.854,0.066-13.655-1.696-20.099
					l10.314-5.238l-10.83-21.326l-10.569,5.367c-4.202-5.02-9.312-9.343-15.196-12.671l3.766-11.537l-22.738-7.422l-3.896,11.935
					c-6.534-0.537-13.005,0.099-19.152,1.779l-5.83-11.481l-21.326,10.83l5.96,11.736c-4.785,4.005-8.929,8.84-12.189,14.38
					l-12.611-4.117l-7.422,22.738l12.611,4.117c-0.636,6.396-0.143,12.745,1.358,18.802l-11.736,5.96l10.83,21.326l11.481-5.83
					c3.972,4.984,8.822,9.315,14.414,12.736l-3.896,11.935l22.738,7.422l3.766-11.537c6.715,0.785,13.391,0.309,19.745-1.265
					l5.367,10.569l21.326-10.83l-5.238-10.314c5.224-4.163,9.734-9.291,13.227-15.227L2145.155,550.852z"/>
				
					<ellipse transform="matrix(0.3963 -0.9181 0.9181 0.3963 782.6594 2227.8623)" style="fill:#FFFFFF;" cx="2085.444" cy="518.78" rx="37.334" ry="37.334"/>
			</g>
		</g>
		<g>
			<g>
				<path style="fill:#F0F0F0;" d="M1091.677,617.388l16.654-22.74l-10.852-7.948c3.278-7.426,5.084-15.267,5.475-23.129
					l13.472-2.081l-4.304-27.855l-13.805,2.133c-2.864-7.164-7-13.879-12.369-19.765l8.45-11.538l-22.74-16.654l-8.741,11.936
					c-7.12-2.998-14.6-4.661-22.1-5.034l-2.317-14.996l-27.855,4.304l2.368,15.328c-6.828,2.729-13.243,6.624-18.926,11.632
					l-12.612-9.237l-16.654,22.74l12.612,9.237c-3.059,6.93-4.836,14.22-5.378,21.553l-15.329,2.368l4.304,27.855l14.996-2.317
					c2.619,7.038,6.462,13.668,11.469,19.551l-8.741,11.936l22.74,16.654l8.45-11.538c7.232,3.342,14.882,5.259,22.576,5.827
					l2.133,13.805l27.855-4.304l-2.081-13.472c7.378-2.746,14.309-6.833,20.399-12.2L1091.677,617.388z"/>
				
					<ellipse transform="matrix(0.0456 -0.999 0.999 0.0456 430.2945 1569.5303)" style="fill:#FFFFFF;" cx="1036.575" cy="559.567" rx="43.995" ry="43.995"/>
			</g>
			<g>
				<path style="fill:#F0F0F0;" d="M887.995,567.763l16.577-11.913l-5.686-7.911c3.926-4.376,6.931-9.369,8.968-14.694l9.743,1.595
					l3.297-20.146l-9.984-1.634c-0.362-5.576-1.7-11.129-4.074-16.388l8.411-6.045l-11.913-16.577l-8.701,6.253
					c-4.228-3.664-9.005-6.49-14.085-8.433l1.775-10.845l-20.146-3.297l-1.814,11.086c-5.314,0.345-10.606,1.584-15.645,3.755
					l-6.608-9.194l-16.577,11.913l6.608,9.194c-3.664,4.083-6.526,8.704-8.546,13.631l-11.086-1.814l-3.297,20.145l10.845,1.775
					c0.222,5.434,1.377,10.863,3.502,16.038l-8.701,6.253l11.913,16.577l8.411-6.045c4.228,3.926,9.065,6.966,14.234,9.086
					l-1.634,9.984l20.146,3.297l1.595-9.743c5.697-0.232,11.387-1.489,16.786-3.815L887.995,567.763z"/>
				
					<ellipse transform="matrix(0.9719 -0.2356 0.2356 0.9719 -97.1624 217.8139)" style="fill:#FFFFFF;" cx="863.053" cy="515.569" rx="31.863" ry="31.863"/>
			</g>
		</g>
	</g>
</g>
</svg>
