<?xml version="1.0" encoding="utf-8"?>
<!-- Generator: Adobe Illustrator 27.5.0, SVG Export Plug-In . SVG Version: 6.00 Build 0)  -->
<svg version="1.1" xmlns="http://www.w3.org/2000/svg" xmlns:xlink="http://www.w3.org/1999/xlink" x="0px" y="0px"
	 viewBox="0 0 3710 3710" style="enable-background:new 0 0 3710 3710;" xml:space="preserve">
<g id="Background">
	<g>
		<g>
			<rect style="fill:transparent;" width="3710" height="3710"/>
		</g>
	</g>
</g>
<g id="Illustration">
	<g>
		<path style="fill:#F4F7FA;" d="M1097.024,623.292c-94.051,135.185,16.226,354.351-123.33,456.021
			c-135.847,98.968-302.731-63.254-430.758,21.938c-189.921,126.376-155.238,704.648,122.437,1063.94
			c83.506,108.052,153.281,150.093,184.183,272.294c66.357,262.397-166.855,418.487-122.475,548.264
			c99.928,292.211,1636.743,537.41,2253.383-340.78c287.995-410.151,331.086-1002.412,73.771-1452.238
			C2589.27,379.902,1308.058,319.963,1097.024,623.292z"/>
		<g>
			<g>
				<path style="fill:#97A6B7;" d="M2871.485,1908.545c57.885,37.072,130.706,13.558,162.605-52.597
					c31.92-66.198,10.724-149.901-47.297-186.875c-3.003-1.915-6.069-3.567-9.143-5.159c10.771-37.191,18.895-74.902,24.344-112.846
					c3.325,0.255,6.662,0.46,10.052,0.4c66.238-1.183,118.871-63.686,117.483-139.608c-1.39-75.919-56.273-136.353-122.502-134.986
					c-3.46,0.073-6.858,0.409-10.236,0.807c-6.911-38.048-16.38-75.419-28.322-111.789c3.042-1.719,6.068-3.505,9.026-5.552
					c56.623-39.17,74.74-123.608,40.428-188.512c-34.289-64.859-107.904-85.546-164.383-46.29c-2.892,2.011-5.613,4.211-8.302,6.451
					c-22.287-28.67-46.719-55.506-73.138-80.286c1.856-3.209,3.674-6.462,5.319-9.899c31.754-66.354,73.279-138.399,15.034-173.745
					c-134.475-81.604-192.066-23.996-223.687,42.259c-1.636,3.431-3.049,6.934-4.405,10.446
					c-32.241-12.214-64.883-21.396-97.69-27.519c0.206-3.789,0.365-7.588,0.296-11.454c-1.372-75.394,18.919-114.719-46.771-120.733
					c-142.938-13.086-191.07,51.871-189.706,127.082c0.072,3.932,0.37,7.791,0.72,11.63c-32.666,7.939-64.726,18.776-95.911,32.42
					c-1.483-3.454-3.02-6.891-4.781-10.25c-33.671-64.186-105.961-84.5-161.43-45.453c-55.405,39.002-73.103,122.518-39.569,186.62
					c1.717,3.287,3.601,6.378,5.511,9.433c-24.526,25.356-47.483,53.146-68.685,83.197c-2.742-2.111-5.523-4.18-8.458-6.05
					c-56.63-36.086-127.68-12.123-158.737,53.45c-31.04,65.53-10.435,147.924,46.063,184.107c2.928,1.876,5.919,3.492,8.918,5.052
					c-10.503,36.771-18.423,74.03-23.732,111.5c-3.239-0.243-6.49-0.438-9.787-0.373c-64.424,1.334-115.49,62.996-114.145,137.741
					c1.347,74.746,54.606,134.407,119.033,133.257c3.367-0.06,6.678-0.379,9.968-0.764c6.736,37.586,15.967,74.523,27.615,110.504
					c-2.967,1.682-5.919,3.43-8.804,5.435c-55.157,38.336-72.779,121.486-39.393,185.796
					c33.407,64.356,144.175,102.375,199.514,64.118c2.838-1.964-33.428-20.906-30.792-23.097
					c21.861,28.625,45.85,55.479,71.816,80.346c-1.823,3.16-3.613,6.365-5.229,9.752c-31.199,65.379-10.489,148.2,46.302,185.063
					c56.857,36.906,128.383,13.811,159.717-51.661c1.622-3.393,3.021-6.86,4.368-10.339c31.994,12.635,64.433,22.269,97.077,28.864
					c-0.204,3.778-0.362,7.568-0.294,11.425c1.366,75.256,55.342,135.726,120.639,135.057
					c65.383-0.67,117.341-62.373,115.969-137.811c-0.073-3.942-0.371-7.817-0.726-11.67c32.865-7.476,65.164-17.88,96.619-31.132
					c1.495,3.492,3.049,6.967,4.825,10.363c34.016,65.028,107.208,86.641,163.515,48.189
					c56.373-38.499,74.408-122.556,40.25-187.674c-1.751-3.333-3.667-6.474-5.612-9.579c24.975-25.309,48.372-53.119,70.004-83.254
					C2865.65,1904.507,2868.489,1906.626,2871.485,1908.545z M2155.576,1858.7c-206.552-133.15-281.725-433.38-168.454-671.598
					c113.533-238.775,373.983-326.258,582.292-194.388c209.2,132.433,285.78,435.23,170.482,675.289
					C2624.863,1907.499,2363.006,1992.417,2155.576,1858.7z"/>
				<path style="fill:#97A6B7;" d="M3012.046,1551.468c66.238-1.185,118.871-63.689,117.483-139.61
					c-1.39-75.918-56.273-136.354-122.502-134.984c-3.46,0.071-6.858,0.409-10.236,0.806c-6.909-38.05-16.38-75.416-28.322-111.789
					c3.042-1.718,6.068-3.505,9.026-5.554c56.623-39.169,126.767-138.98,86.754-200.145
					c-75.854-115.951-154.23-73.912-210.709-34.655c-2.892,2.011-5.613,4.21-8.3,6.448c-22.289-28.671-46.72-55.504-73.14-80.286
					c1.856-3.207,3.674-6.46,5.319-9.895c17.28-36.109,18.804-77.194,7.392-113.035
					c-54.416,101.248-108.041,202.879-160.645,305.044c167.008,147.066,220.297,416.466,115.726,634.189
					c-88.438,184.138-263.77,276.792-434.361,249.006c-7.596,21.093-15.053,42.312-23.184,63.144
					c-22.057,56.515-47.107,111.543-72.175,166.465c15.765,4.647,31.602,8.601,47.489,11.814c-0.204,3.78-0.362,7.57-0.294,11.426
					c1.366,75.257,42.715,142.744,161.091,146.254c65.605,1.947,76.888-73.566,75.517-149.008c-0.073-3.941-0.37-7.816-0.725-11.669
					c32.864-7.476,65.163-17.882,96.618-31.133c1.495,3.493,3.049,6.967,4.826,10.364c34.018,65.032,152.211,101.699,208.57,63.237
					c56.425-38.508,29.353-137.604-4.806-202.721c-1.751-3.334-3.667-6.475-5.612-9.581c24.975-25.308,48.373-53.118,70.004-83.252
					c2.799,2.16,5.637,4.279,8.634,6.193c57.885,37.076,130.706,13.56,162.606-52.596c31.919-66.195,10.724-149.901-47.297-186.873
					c-3.004-1.915-6.07-3.568-9.144-5.159c10.771-37.191,18.895-74.905,24.344-112.845
					C3005.319,1551.322,3008.656,1551.526,3012.046,1551.468z"/>
				<path style="fill:#D8DEE8;" d="M2933.747,1921.513c57.96,37.102,130.873,13.584,162.813-52.611
					c31.96-66.236,10.738-149.993-47.359-187c-3.006-1.916-6.077-3.569-9.155-5.163c10.786-37.213,18.92-74.947,24.376-112.916
					c3.329,0.258,6.669,0.463,10.064,0.402c66.321-1.174,119.022-63.711,117.633-139.681
					c-1.392-75.968-56.344-136.447-122.658-135.087c-3.464,0.073-6.865,0.409-10.249,0.806
					c-6.92-38.074-16.401-75.468-28.358-111.864c3.046-1.72,6.076-3.507,9.038-5.555c56.695-39.187,74.836-123.677,40.48-188.627
					c-34.332-64.904-108.041-85.614-164.593-46.339c-2.896,2.012-5.621,4.214-8.312,6.453
					c-22.316-28.693-46.779-55.546-73.232-80.346c1.858-3.209,3.679-6.466,5.328-9.904c31.792-66.392,10.681-149.713-47.11-186.023
					c-57.725-36.268-130.148-11.864-161.808,54.43c-1.639,3.432-3.054,6.937-4.411,10.452
					c-32.281-12.226-64.966-21.419-97.811-27.548c0.203-3.793,0.362-7.594,0.293-11.462
					c-1.374-75.442-55.586-135.108-121.011-133.269c-65.337,1.835-117.129,64.334-115.764,139.591
					c0.071,3.935,0.37,7.796,0.721,11.636c-32.707,7.941-64.807,18.781-96.032,32.429c-1.484-3.455-3.022-6.896-4.784-10.257
					c-33.713-64.231-106.095-84.569-161.634-45.503c-55.474,39.021-73.194,122.587-39.618,186.733
					c1.721,3.287,3.605,6.382,5.52,9.44c-24.556,25.369-47.544,53.172-68.774,83.24c-2.744-2.113-5.528-4.184-8.467-6.055
					c-56.7-36.116-127.84-12.146-158.938,53.463c-31.078,65.567-10.447,148.015,46.121,184.228c2.934,1.878,5.927,3.496,8.929,5.056
					c-10.515,36.794-18.446,74.073-23.76,111.567c-3.242-0.243-6.499-0.438-9.801-0.373
					c-64.501,1.326-115.634,63.021-114.286,137.812c1.348,74.793,54.673,134.497,119.179,133.357c3.373-0.06,6.689-0.38,9.983-0.763
					c6.744,37.61,15.987,74.572,27.65,110.576c-2.971,1.682-5.927,3.43-8.815,5.438c-55.227,38.353-72.87,121.553-39.444,185.908
					c33.45,64.4,105.421,85.645,160.786,47.377c2.838-1.966,5.511-4.117,8.15-6.308c21.89,28.646,45.908,55.52,71.907,80.406
					c-1.826,3.161-3.617,6.368-5.236,9.759c-31.241,65.414-10.502,148.288,46.36,185.185
					c56.928,36.937,128.544,13.837,159.916-51.675c1.627-3.392,3.027-6.862,4.373-10.344c32.036,12.648,64.518,22.291,97.201,28.895
					c-0.203,3.782-0.363,7.574-0.294,11.434c1.368,75.302,55.412,135.817,120.791,135.158
					c65.466-0.662,117.49-62.396,116.115-137.882c-0.071-3.945-0.369-7.822-0.726-11.678c32.906-7.476,65.246-17.883,96.741-31.138
					c1.498,3.492,3.053,6.972,4.832,10.369c34.061,65.075,107.345,86.712,163.722,48.241
					c56.444-38.514,74.502-122.623,40.301-187.789c-1.753-3.333-3.672-6.478-5.62-9.585c25.004-25.32,48.433-53.145,70.094-83.297
					C2927.905,1917.471,2930.745,1919.591,2933.747,1921.513z M2216.931,1871.54c-206.812-133.26-282.079-433.688-168.666-672.042
					c113.678-238.909,374.455-326.415,583.027-194.436c209.465,132.544,286.143,435.542,170.698,675.739
					C2686.812,1920.434,2424.626,2005.37,2216.931,1871.54z"/>
			</g>
		</g>
		<g>
			<g>
				
					<linearGradient id="SVGID_1_" gradientUnits="userSpaceOnUse" x1="-426.554" y1="48.2164" x2="589.7935" y2="2718.7561" gradientTransform="matrix(0.9874 -0.1583 0.1583 0.9874 1476.7972 303.0527)">
					<stop  offset="0.0036" style="stop-color:#E38DDD"/>
					<stop  offset="1" style="stop-color:#9571F6"/>
				</linearGradient>
				<path style="fill:url(#SVGID_1_);" d="M1838.869,2327.072c-35.79,101.183,16.11,194.156,63.308,255.575
					c9.799-0.86,15.743,1.323,25.865,2.801c91.351,13.338,132.2-1.653,223.611-3.61c19.675-0.421,76.363-20.438,98.973-30.225
					l41.85-18.98c0,0,54.601-243.065-72.132-296.883c-126.733-53.818-102.601-292.884-104.515-421.849
					c-5.194-349.919-377.581-283.087-420.196-732.211c-11.334-119.453,6.994-351.048-102.665-436.738
					c-124.932-97.626-198.713,16.585-281.01-67.136c-128.627-130.853-320.534-164.1-418.383-7.808
					c-96.572,154.253,64.109,428.161,418.282,627.17c237.914,171.552,246.755,228.771,242.615,370.524
					c-2.9,99.29-72.507,363.771,70.308,453.354C1767.597,2110.64,1879.783,2211.402,1838.869,2327.072z"/>
				<g>
					<defs>
						<path id="SVGID_00000098931310789181341920000001612710424641428668_" d="M1967.602,2656.584l318.396-114.695
							c0,0,61.079-252.322-65.653-306.139c-126.733-53.818-102.601-292.884-104.515-421.85
							c-5.193-349.918-377.581-283.086-420.195-732.211c-11.334-119.453,6.993-351.048-102.665-436.738
							c-124.932-97.625-198.713,16.585-281.01-67.136c-128.627-130.853-320.534-164.099-418.383-7.808
							c-96.572,154.253,64.109,428.161,418.282,627.17c237.914,171.552,246.755,228.771,242.615,370.524
							c-2.9,99.29-72.507,363.771,70.308,453.355c142.815,89.584,255.002,190.346,214.087,306.016
							C1776.612,2503.079,1967.602,2656.584,1967.602,2656.584z"/>
					</defs>
					<clipPath id="SVGID_00000001659766554685853320000013685160725092146067_">
						<use xlink:href="#SVGID_00000098931310789181341920000001612710424641428668_"  style="overflow:visible;"/>
					</clipPath>
					<g style="opacity:0.5;clip-path:url(#SVGID_00000001659766554685853320000013685160725092146067_);">
						<path style="fill:#FCFDFE;" d="M2104.722,2589.933l6.549-1.449c-8.633-39.032-17.823-78.291-27.312-116.684
							c-70.277-284.26-164.545-551.673-280.192-794.815c-97.993-206.02-212.669-397.536-340.841-569.228
							c-103.076-138.074-215.402-264.135-333.859-374.682c-83.275-77.711-168.694-147.013-253.89-205.973
							c-14.845-10.278-30.602-19.957-45.841-29.32c-20.303-12.472-41.298-25.369-60.294-39.782l-4.053,5.346
							c19.257,14.612,40.393,27.597,60.833,40.154c15.164,9.314,30.842,18.947,45.537,29.12
							c84.928,58.774,170.094,127.868,253.132,205.361c118.164,110.272,230.221,236.036,333.06,373.791
							c127.909,171.338,242.355,362.473,340.159,568.096c115.453,242.73,209.569,509.717,279.735,793.539
							C2086.924,2511.748,2096.101,2550.95,2104.722,2589.933z"/>
						<path style="fill:#FCFDFE;" d="M1604.836,1327.077l5.783-3.404c-146.168-248.122-84.277-737.711-83.633-742.627l-6.654-0.871
							C1519.687,585.115,1457.499,1076.968,1604.836,1327.077z"/>
						<path style="fill:#FCFDFE;" d="M1952.876,2057.017l6.138-2.708c-79.606-180.246-441.463-291.16-445.109-292.26l-1.938,6.427
							C1515.583,1769.566,1874.516,1879.587,1952.876,2057.017z"/>
						<path style="fill:#FCFDFE;" d="M1989.203,2163.193l6.519-1.585c-30.337-124.995-4.925-311.665,71.557-525.616
							c3.845-10.759,3.845-10.759,3.562-12.001l-6.54,1.503l3.27-0.751l-3.3-0.526c-0.174,0.745-1.625,4.807-3.311,9.516
							C1984.043,1848.906,1958.557,2036.936,1989.203,2163.193z"/>
						<path style="fill:#FCFDFE;" d="M2087.959,2518.923l5.793-3.381c-71.414-122.354-279.179-153.772-281.267-154.075l-0.966,6.64
							C1813.579,2368.406,2018.179,2399.372,2087.959,2518.923z"/>
						<path style="fill:#FCFDFE;" d="M2114.869,2589.503c14.753-113.283,62.515-226.036,146.015-344.698l-5.49-3.863
							c-84.139,119.576-132.281,233.309-147.178,347.696L2114.869,2589.503z"/>
						<path style="fill:#FCFDFE;" d="M1193.188,804.232l5.58-3.722c-88.956-133.423-151.481-294.214-172.027-347.05
							c-4.974-12.79-6.739-17.286-7.626-18.745l-5.731,3.486c0.663,1.123,3.505,8.434,7.104,17.692
							C1041.099,508.898,1103.825,670.2,1193.188,804.232z"/>
						<path style="fill:#FCFDFE;" d="M1369.91,999.774l4.237-5.202c-116.564-95.004-415.65-63.518-428.326-62.132l0.732,6.67
							C949.629,938.776,1255.522,906.546,1369.91,999.774z"/>
					</g>
				</g>
			</g>
			<g>
				<defs>
					<path id="SVGID_00000008136072017524320000000007496444716681576607_" d="M1860.672,2528.063l-279.086,136.063
						c0,0-122.333-117.552-103.198-251.931c39.042-274.174-203.813-289.233-304.587-310.757
						c-151.976-32.46-271.745-127.345-136.287-260.113S888.229,1537.13,635.234,1520.08
						c-247.573-16.684-360.773-466.401,178.384-479.49c321.983-7.817,416.817,291.369,500.626,431.07
						c83.809,139.701,306.665,45.992,319.294,260.41c10.787,183.152-55.612,352.906,87.383,412.724
						C1863.916,2204.613,1930.638,2317.317,1860.672,2528.063z"/>
				</defs>
				<clipPath id="SVGID_00000135691466580706405020000003390848905178338689_">
					<use xlink:href="#SVGID_00000008136072017524320000000007496444716681576607_"  style="overflow:visible;"/>
				</clipPath>
				
					<linearGradient id="SVGID_00000138559536838355975200000000899131760290463140_" gradientUnits="userSpaceOnUse" x1="5385.519" y1="322.6935" x2="4767.4204" y2="2079.3965" gradientTransform="matrix(-0.8989 0.4382 0.4382 0.8989 5274.5405 -1505.5201)">
					<stop  offset="0" style="stop-color:#FFC444"/>
					<stop  offset="0.9964" style="stop-color:#F36F56"/>
				</linearGradient>
				
					<path style="clip-path:url(#SVGID_00000135691466580706405020000003390848905178338689_);fill:url(#SVGID_00000138559536838355975200000000899131760290463140_);" d="
					M1860.672,2528.063l-279.086,136.063c0,0-122.333-117.552-103.198-251.931c39.042-274.174-203.813-289.233-304.587-310.757
					c-151.976-32.46-254.68-120.061-157.572-256.709c109.872-154.611-128.001-307.598-380.996-324.648
					c-247.573-16.684-360.773-466.401,178.384-479.49c321.983-7.817,416.817,291.369,500.626,431.07
					c83.809,139.701,306.665,45.992,319.294,260.41c10.787,183.152-55.612,352.906,87.383,412.724
					C1863.916,2204.613,1930.638,2317.317,1860.672,2528.063z"/>
				<g style="opacity:0.5;clip-path:url(#SVGID_00000135691466580706405020000003390848905178338689_);">
					<path style="fill:#BEB8F2;" d="M1752.512,2612.854l-6.313,1.763c-1.092-3.91-111.831-394.996-338.514-749.593
						c-208.833-326.68-561.671-688.333-1056.644-556.084l-1.693-6.332c220.339-58.873,431.305-26.463,627.042,96.325
						c156.36,98.087,303.351,253.751,436.89,462.671C1640.457,2217.024,1751.416,2608.936,1752.512,2612.854z"/>
					<path style="fill:#BEB8F2;" d="M1055.967,1453.777l-6.204,2.121c-70.644-206.406-279.543-446.683-281.643-449.086l4.932-4.318
						C775.162,1004.909,984.908,1246.161,1055.967,1453.777z"/>
					<path style="fill:#BEB8F2;" d="M923.305,1375.538c-258.579-26.876-414.977,122.757-416.525,124.271l-4.582-4.685
						c1.57-1.54,160.034-153.311,421.784-126.107L923.305,1375.538z"/>
					<path style="fill:#BEB8F2;" d="M1543.251,2104.921c-201.301-245.663-612.317-129.6-616.227-128.135l-2.695-5.968
						c3.701-1.802,420.903-117.897,623.991,129.949L1543.251,2104.921z"/>
					<path style="fill:#BEB8F2;" d="M1487.685,1986.329l-6.357,1.612c-49.858-196.44,83.779-413.484,85.137-415.654l5.558,3.473
						C1570.681,1577.908,1438.519,1792.632,1487.685,1986.329z"/>
					<path style="fill:#BEB8F2;" d="M1727.418,2553.459c-61.207-103.975-257.306-114.329-259.279-114.424l0.306-6.545
						c8.201,0.381,201.61,10.6,264.621,117.645L1727.418,2553.459z"/>
					<path style="fill:#BEB8F2;" d="M1702.439,2460.494l-6.292,1.839c-26.777-91.563,55.083-248.015,81.984-299.425
						c3.801-7.266,7.082-13.538,7.447-14.77l6.311,1.77c-0.489,1.746-2.658,5.922-7.951,16.039
						C1757.341,2216.778,1676.403,2371.469,1702.439,2460.494z"/>
				</g>
			</g>
			<g>
				
					<linearGradient id="SVGID_00000015353455413060310960000016519887708578248605_" gradientUnits="userSpaceOnUse" x1="1607.0009" y1="1689.3956" x2="25.4805" y2="3962.8303" gradientTransform="matrix(-0.9956 -0.0937 -0.0937 0.9956 2547.9265 166.2315)">
					<stop  offset="0" style="stop-color:#FF9085"/>
					<stop  offset="1" style="stop-color:#FB6FBB"/>
				</linearGradient>
				<path style="fill:url(#SVGID_00000015353455413060310960000016519887708578248605_);" d="M1446.361,2968.357
					c1.247,0.37,2.497,0.735,3.75,1.097c74.081,21.432,158.827,31.77,255.365,23.427c18.703-2.954,37.406-5.907,56.11-8.861
					c10.223-46.535,11.616-92.624-47.698-102.885c-92.113-15.936-113.021-172.074-95.278-230.324
					c21.96-72.098,69.646-241.024-72.368-267.9c-118.225-22.375-199.089-12.649-224.65-158.35
					c-25.562-145.701-116.583-227.601-248.541-202.931c-138.865,25.962-275.979-146.589-383.176-70.522
					c-186.784,132.545,32.985,434.032,287.207,498.525c254.222,64.493,125.333,168.767,133.169,289.572
					c10.698,164.923,228.012,103.356,294.241,160.71C1426.925,2919.341,1439.606,2943.568,1446.361,2968.357z"/>
				<g>
					<defs>
						<path id="SVGID_00000054957525474050401090000013577564463670295465_" d="M1450.732,3059.427l304.688-38.964
							c12.233-45.401,24.721-127.866-41.532-139.328c-92.112-15.936-113.021-172.074-95.278-230.325
							c21.96-72.097,69.646-241.023-72.368-267.899c-118.225-22.375-199.089-12.649-224.651-158.35
							c-25.562-145.701-116.583-227.601-248.54-202.931c-138.865,25.961-275.979-146.589-383.176-70.522
							c-186.784,132.544,32.986,434.031,287.207,498.525c254.221,64.494,125.333,168.767,133.169,289.572
							c10.698,164.924,228.011,103.355,294.241,160.71C1456.411,2944.875,1456.25,3015.529,1450.732,3059.427z"/>
					</defs>
					<clipPath id="SVGID_00000044146548738253909560000015548627579969682049_">
						<use xlink:href="#SVGID_00000054957525474050401090000013577564463670295465_"  style="overflow:visible;"/>
					</clipPath>
					<g style="opacity:0.5;clip-path:url(#SVGID_00000044146548738253909560000015548627579969682049_);">
						<path style="fill:#FCFDFE;" d="M1588.067,2993.154l6.316-2.103c-153.803-461.685-530.92-846.463-984.186-1004.177
							l-2.186,6.287C1059.367,2150.211,1434.903,2533.387,1588.067,2993.154z"/>
						<path style="fill:#FCFDFE;" d="M1482.652,2748.624l6.606-0.814c-23.424-189.804,120.806-357.807,122.266-359.482l-5.018-4.373
							C1605.026,2385.65,1458.859,2555.828,1482.652,2748.624z"/>
						<path style="fill:#FCFDFE;" d="M1557.459,2908.994l5.427-3.854c-112.269-158.077-464.862-138.897-468.411-138.684l0.398,6.645
							C1098.382,2772.891,1447.324,2753.923,1557.459,2908.994z"/>
						<path style="fill:#FCFDFE;" d="M1197.292,2366.432l5.739-3.375c-78.033-132.547-13.223-359.322-12.56-361.598l-6.388-1.867
							C1183.41,2001.895,1117.816,2231.437,1197.292,2366.432z"/>
						<path style="fill:#FCFDFE;" d="M959.065,2169.549l2.767-6.056c-159.428-72.791-382.738,5.85-384.978,6.657l2.248,6.266
							C581.312,2175.617,802.121,2097.89,959.065,2169.549z"/>
					</g>
				</g>
			</g>
		</g>
		<g>
			
				<linearGradient id="SVGID_00000059300639830965846820000004735125311302069922_" gradientUnits="userSpaceOnUse" x1="1526.9749" y1="1079.1243" x2="-380.0766" y2="3947.3274">
				<stop  offset="0.0036" style="stop-color:#26264F"/>
				<stop  offset="1" style="stop-color:#444B8C"/>
			</linearGradient>
			<path style="fill:url(#SVGID_00000059300639830965846820000004735125311302069922_);" d="M837.135,2108.608v-923.867
				l51.097-45.721l280.346,63.86c116.015,6.349,203.34,32.99,262.732,79.74c59.02,46.47,88.403,110.865,88.403,193.388
				c0,47.592-10.423,87.843-31.286,120.808c-20.914,33.057-51.765,56.986-92.647,71.789c46.135,14.113,81.39,38.822,105.896,74.09
				c24.435,35.187,36.638,77.566,36.638,127.202c0,90.031,29.244,102.941-23.169,150.059
				c-70.963,63.795-194.913,90.834-304.291,90.994L837.135,2108.608z M1060.814,1589.652l114.615,3.957
				c47.61,1.219,81.423-6.607,101.571-23.446c20.098-16.785,30.14-42.258,30.14-76.427c0-39.289-10.857-68.059-32.605-86.32
				c-21.806-18.313-57.076-28.604-105.958-30.84l-107.764-4.93V1589.652z M1060.814,1738.433v225.775l143.834,2.195
				c39.23,0.599,69.27-8.218,90.203-26.429c20.883-18.161,31.308-44.025,31.308-77.641c0-77.414-37.055-117.332-111.586-119.768
				L1060.814,1738.433z"/>
			
				<linearGradient id="SVGID_00000070118896260183992490000001831834886270339721_" gradientUnits="userSpaceOnUse" x1="2168.0483" y1="1362.2816" x2="1846.8549" y2="2082.3779">
				<stop  offset="0" style="stop-color:#AB316D"/>
				<stop  offset="1" style="stop-color:#792D3D"/>
			</linearGradient>
			<path style="fill:url(#SVGID_00000070118896260183992490000001831834886270339721_);" d="M1986.915,1827.398l-109.211-2.557
				l51.097,273.432l-51.097,16.861l-205.174-1.287v-883.385l51.097-37.29c97.943,5.36,455.358,88.354,509.67,137.81
				c53.987,49.164,80.861,115.963,80.861,200.595c0,61.268-11.312,111.654-33.973,151.27
				c-22.718,39.706-58.393,71.468-107.164,95.29l219.761,323.046l-51.096,16.861l-209.073-1.311L1986.915,1827.398z
				 M1877.704,1657.519l127.478,4.13c37.937,1.229,66.385-8.606,85.43-29.47c18.998-20.83,28.493-50.443,28.493-88.872
				c0-38.419-9.584-68.98-28.773-91.709c-19.234-22.767-47.589-35.034-85.149-36.752l-127.478-5.832V1657.519z"/>
			
				<linearGradient id="SVGID_00000158715523475850522930000017423426566070669219_" gradientUnits="userSpaceOnUse" x1="2177.3369" y1="1303.9514" x2="150.0145" y2="4353.042">
				<stop  offset="0.0036" style="stop-color:#26264F"/>
				<stop  offset="1" style="stop-color:#444B8C"/>
			</linearGradient>
			<path style="fill:url(#SVGID_00000158715523475850522930000017423426566070669219_);" d="M1316.91,2967.465l-299.282,13.544
				l-229.494,239.698l-64.945-47.482l341.718-959.577l205.327-1.201l64.944,47.482l98.608,925.714l-64.944-47.482L1316.91,2967.465z
				 M1070.564,2803.52l194.743-7.057l-97.192-321.133L1070.564,2803.52z"/>
			
				<linearGradient id="SVGID_00000178883186728790490970000003586174672125950596_" gradientUnits="userSpaceOnUse" x1="2616.0933" y1="1728.1011" x2="727.1149" y2="4569.1226">
				<stop  offset="0" style="stop-color:#AB316D"/>
				<stop  offset="1" style="stop-color:#792D3D"/>
			</linearGradient>
			<path style="fill:url(#SVGID_00000178883186728790490970000003586174672125950596_);" d="M2350.896,3084.828l-128.462,57.986
				l-64.945-47.482l-293.633-545.519l-140.229,620.091l-64.945-47.482v-912.246l205.174-1.2l64.945,47.482l228.131,503.423v-552.62
				l193.964-1.135l64.945,47.482L2350.896,3084.828z"/>
			
				<linearGradient id="SVGID_00000073712613147096999610000005323440836876336282_" gradientUnits="userSpaceOnUse" x1="3051.1575" y1="2079.5847" x2="1245.4247" y2="4795.4048">
				<stop  offset="0" style="stop-color:#AB316D"/>
				<stop  offset="1" style="stop-color:#792D3D"/>
			</linearGradient>
			<path style="fill:url(#SVGID_00000073712613147096999610000005323440836876336282_);" d="M2471.814,3078.261v-872.843
				l250.219-1.463c67.43-0.395,127.62,16.367,180.704,50.139c52.754,33.578,93.739,81.053,123.1,142.441
				c29.255,61.191,44.018,129.947,44.36,206.437v38.83c0,77.285-14.258,147.107-42.837,209.62
				c-28.68,62.736-69.217,112.845-121.789,150.332c-52.896,37.731-112.275,58.658-178.28,62.633l-190.534,61.356L2471.814,3078.261z
				 M2659.734,2365.08v542.804l64.404-2.919c52.786-2.393,93.134-25.292,121.196-68.604
				c27.973-43.166,41.924-106.085,41.924-188.868v-36.891c0-82.377-13.951-144.165-41.924-185.471
				c-28.062-41.42-69.104-61.783-123.301-60.977L2659.734,2365.08z"/>
			
				<linearGradient id="SVGID_00000075858626682927610380000010269349719775316615_" gradientUnits="userSpaceOnUse" x1="1392.8448" y1="1232.6124" x2="1169.9807" y2="1652.4271">
				<stop  offset="0" style="stop-color:#AA80F9"/>
				<stop  offset="0.9964" style="stop-color:#6165D7"/>
			</linearGradient>
			<path style="fill:url(#SVGID_00000075858626682927610380000010269349719775316615_);" d="M888.232,2091.748v-952.727
				l331.443,18.14c116.014,6.349,203.34,32.99,262.732,79.74c59.02,46.47,88.404,110.864,88.404,193.388
				c0,47.592-10.423,87.843-31.286,120.808c-20.914,33.057-51.765,56.986-92.647,71.789c46.135,14.113,81.389,38.821,105.896,74.09
				c24.434,35.187,36.637,77.566,36.637,127.202c0,90.031-27.116,157.326-81.572,202.066
				c-54.783,45.007-136.509,67.687-245.888,67.847L888.232,2091.748z M1111.911,1543.931l114.616,3.958
				c47.61,1.219,81.423-6.607,101.571-23.447c20.097-16.785,30.14-42.258,30.14-76.427c0-39.289-10.858-68.058-32.605-86.32
				c-21.806-18.313-57.076-28.604-105.958-30.84l-107.764-4.929V1543.931z M1111.911,1692.712v225.775l143.835,2.195
				c39.23,0.599,69.27-8.219,90.203-26.429c20.883-18.161,31.307-44.025,31.307-77.641c0-77.413-37.054-117.332-111.586-119.768
				L1111.911,1692.712z"/>
			
				<linearGradient id="SVGID_00000008862553793877091860000010997395096936450177_" gradientUnits="userSpaceOnUse" x1="2147.2307" y1="1467.9122" x2="1722.2332" y2="2343.8215">
				<stop  offset="0" style="stop-color:#FFC444"/>
				<stop  offset="0.9964" style="stop-color:#F36F56"/>
			</linearGradient>
			<path style="fill:url(#SVGID_00000008862553793877091860000010997395096936450177_);" d="M2038.011,1790.108l-109.21-2.557
				v319.153l-205.174-1.287v-912.245l332.651,18.205c97.943,5.36,173.803,32.858,228.115,82.315
				c53.987,49.164,80.861,115.962,80.861,200.595c0,61.268-11.312,111.654-33.973,151.27
				c-22.718,39.706-58.393,71.468-107.164,95.29l168.665,359.697v9.07l-209.073-1.311L2038.011,1790.108z M1928.801,1620.228
				l127.478,4.13c37.937,1.229,66.385-8.607,85.43-29.47c18.998-20.83,28.493-50.444,28.493-88.872
				c0-38.419-9.584-68.98-28.774-91.709c-19.234-22.767-47.589-35.034-85.149-36.752l-127.478-5.831V1620.228z"/>
			
				<linearGradient id="SVGID_00000053544896110053600600000013962933391709043355_" gradientUnits="userSpaceOnUse" x1="1495.4967" y1="2606.0828" x2="261.0323" y2="3975.5649">
				<stop  offset="0.0036" style="stop-color:#E38DDD"/>
				<stop  offset="1" style="stop-color:#9571F6"/>
			</linearGradient>
			<path style="fill:url(#SVGID_00000053544896110053600600000013962933391709043355_);" d="M1381.855,3014.948l-299.281,13.544
				l-53.229,179.116l-241.209,13.1l341.718-959.577l205.327-1.201l325.595,913.387l-226.987,12.327L1381.855,3014.948z
				 M1135.508,2851.002l194.744-7.057l-97.193-321.133L1135.508,2851.002z"/>
			
				<linearGradient id="SVGID_00000029756372633930438160000003463401005794717594_" gradientUnits="userSpaceOnUse" x1="2680.0981" y1="1776.9968" x2="797.0036" y2="4609.1689">
				<stop  offset="0" style="stop-color:#FF9085"/>
				<stop  offset="1" style="stop-color:#FB6FBB"/>
			</linearGradient>
			<path style="fill:url(#SVGID_00000029756372633930438160000003463401005794717594_);" d="M2415.841,3132.31l-193.406,10.503
				l-293.633-545.52v561.466l-205.174,11.143v-912.246l205.174-1.2l293.076,550.905v-552.619l193.963-1.135V3132.31z"/>
			
				<linearGradient id="SVGID_00000081638598857349238410000000736368584535645869_" gradientUnits="userSpaceOnUse" x1="2911.4412" y1="2333.3381" x2="2004.7899" y2="4609.6162">
				<stop  offset="0" style="stop-color:#FFC444"/>
				<stop  offset="0.9964" style="stop-color:#F36F56"/>
			</linearGradient>
			<path style="fill:url(#SVGID_00000081638598857349238410000000736368584535645869_);" d="M2536.758,3125.743v-872.842
				l250.22-1.464c67.43-0.394,127.619,16.368,180.704,50.139c52.755,33.578,93.739,81.053,123.1,142.441
				c29.255,61.19,44.017,129.947,44.36,206.437v38.83c0,77.285-14.258,147.107-42.836,209.62
				c-28.68,62.735-69.218,112.845-121.789,150.332c-52.896,37.731-112.274,58.658-178.28,62.633L2536.758,3125.743z
				 M2724.679,2412.563v542.804l64.404-2.919c52.786-2.392,93.134-25.292,121.196-68.604
				c27.973-43.166,41.924-106.085,41.924-188.868v-36.891c0-82.377-13.951-144.165-41.924-185.472
				c-28.062-41.42-69.104-61.783-123.301-60.977L2724.679,2412.563z"/>
		</g>
		<g>
			
				<linearGradient id="SVGID_00000096020565255843385250000004475381870845239728_" gradientUnits="userSpaceOnUse" x1="2722.8188" y1="2279.4653" x2="2793.2415" y2="2279.4653" gradientTransform="matrix(0.9996 -0.0288 0.0288 0.9996 -78.8154 27.5836)">
				<stop  offset="0" style="stop-color:#311944"/>
				<stop  offset="1" style="stop-color:#6B3976"/>
			</linearGradient>
			<path style="fill:url(#SVGID_00000096020565255843385250000004475381870845239728_);" d="M2709.106,2196.945
				c0,0-2.849,12.766,0.633,22.002c3.483,9.236,60.577,37.451,68.702,40.377c8.125,2.926-19.693-46.313-37.933-56.852
				C2727.093,2194.721,2711.331,2190.449,2709.106,2196.945z"/>
			
				<linearGradient id="SVGID_00000164499811101757490020000011458927875714671272_" gradientUnits="userSpaceOnUse" x1="2753.231" y1="2292.9863" x2="2713.0471" y2="2104.9255" gradientTransform="matrix(0.9996 -0.0288 0.0288 0.9996 -78.8154 27.5836)">
				<stop  offset="0" style="stop-color:#FFC444"/>
				<stop  offset="0.9964" style="stop-color:#F36F56"/>
			</linearGradient>
			<path style="fill:url(#SVGID_00000164499811101757490020000011458927875714671272_);" d="M2706.52,2156.818l7.357,43.205
				c0,0,11.737,11.722,22.018,5.798l-1.428-49.563L2706.52,2156.818z"/>
			
				<linearGradient id="SVGID_00000015330421942605812470000011214977813001764745_" gradientUnits="userSpaceOnUse" x1="2604.5779" y1="1991.2965" x2="2776.0281" y2="1766.2677" gradientTransform="matrix(0.9996 -0.0288 0.0288 0.9996 -78.8154 27.5836)">
				<stop  offset="0" style="stop-color:#311944"/>
				<stop  offset="1" style="stop-color:#6B3976"/>
			</linearGradient>
			<path style="fill:url(#SVGID_00000015330421942605812470000011214977813001764745_);" d="M2661.233,1510.619
				c26.728,110.474,50.31,236.891,64.744,377.207c10.656,103.597,14.844,200.349,14.894,288.826
				c-12.444-0.94-24.888-1.881-37.332-2.821c-22.353-35.001-50.704-88.032-66.62-156.807
				c-20.521-88.673,1.549-108.804-13.411-186.39c-27.866-144.513-126.835-190.838-103.749-252.154
				C2529.195,1553.417,2559.972,1523.329,2661.233,1510.619z"/>
			
				<linearGradient id="SVGID_00000116926229930581395480000003316185287831729298_" gradientUnits="userSpaceOnUse" x1="2548.7781" y1="1902.7035" x2="2757.7141" y2="1902.7035" gradientTransform="matrix(0.9996 -0.0288 0.0288 0.9996 -78.8154 27.5836)">
				<stop  offset="0" style="stop-color:#311944"/>
				<stop  offset="1" style="stop-color:#6B3976"/>
			</linearGradient>
			<path style="opacity:0.3;fill:url(#SVGID_00000116926229930581395480000003316185287831729298_);" d="M2689.813,1899.477
				c-17.616-42.067,6.983-69.989-10.316-134.779c-12.468-46.701-32.511-59.388-56.217-103.3
				c-16.445-30.462-33.428-73.858-39.688-133.788c-41.231,14.624-57.444,33.895-63.834,50.87
				c-23.086,61.315,75.883,107.641,103.749,252.154c14.96,77.586-7.109,97.718,13.411,186.39
				c15.915,68.775,44.267,121.806,66.62,156.807c12.444,0.94,24.888,1.88,37.332,2.821c-0.04-71.188-2.766-147.741-9.377-228.898
				C2708.256,1931.912,2696.244,1914.83,2689.813,1899.477z"/>
			
				<linearGradient id="SVGID_00000158718601465698022110000009527446129702819486_" gradientUnits="userSpaceOnUse" x1="2873.1965" y1="2285.8247" x2="2937.094" y2="2285.8247" gradientTransform="matrix(0.9996 -0.0288 0.0288 0.9996 -78.8154 27.5836)">
				<stop  offset="0" style="stop-color:#311944"/>
				<stop  offset="1" style="stop-color:#6B3976"/>
			</linearGradient>
			<path style="fill:url(#SVGID_00000158718601465698022110000009527446129702819486_);" d="M2858.725,2217.979
				c0,0,4.465-16.794,12.498-12.822s36.998,17.561,46.261,32.896c9.263,15.334,8.728,15.35-6.835,14.726
				C2895.086,2252.156,2861.761,2230.373,2858.725,2217.979z"/>
			
				<linearGradient id="SVGID_00000023252393187647105220000007020437131285065915_" gradientUnits="userSpaceOnUse" x1="2866.6067" y1="2268.7598" x2="2826.4229" y2="2080.699" gradientTransform="matrix(0.9996 -0.0288 0.0288 0.9996 -78.8154 27.5836)">
				<stop  offset="0" style="stop-color:#FFC444"/>
				<stop  offset="0.9964" style="stop-color:#F36F56"/>
			</linearGradient>
			<path style="fill:url(#SVGID_00000023252393187647105220000007020437131285065915_);" d="M2848.643,2184.348l19.538,25.51
				c0,0,5.587,9.352-4.053,9.63l-32.117-16.853L2848.643,2184.348z"/>
			
				<linearGradient id="SVGID_00000063630063226577425760000007836245432899151287_" gradientUnits="userSpaceOnUse" x1="2495.5322" y1="1675.3093" x2="2780.5693" y2="2181.0903" gradientTransform="matrix(0.9996 -0.0288 0.0288 0.9996 -78.8154 27.5836)">
				<stop  offset="0" style="stop-color:#311944"/>
				<stop  offset="1" style="stop-color:#6B3976"/>
			</linearGradient>
			<path style="fill:url(#SVGID_00000063630063226577425760000007836245432899151287_);" d="M2399.295,1653.621
				c15.094,68.373,45.738,166.636,112.163,269.22c108.709,167.882,252.155,252.987,325.134,289.727
				c7.756-9.872,15.512-19.744,23.267-29.615c-24.069-94.597-65.51-148.433-100.074-180.433
				c-39.209-36.301-60.518-36.125-95.911-77.496c-46.504-54.359-61.425-115.11-72.458-162.207
				c-26.243-112.021-2.537-163.88-31.931-182.265C2539.988,1568.357,2498.527,1571.763,2399.295,1653.621z"/>
			
				<linearGradient id="SVGID_00000150080060179613657400000008430744269769158829_" gradientUnits="userSpaceOnUse" x1="2761.2231" y1="1257.7037" x2="2491.1873" y2="1703.4774" gradientTransform="matrix(0.9996 -0.0288 0.0288 0.9996 -78.8154 27.5836)">
				<stop  offset="0" style="stop-color:#FF9085"/>
				<stop  offset="1" style="stop-color:#FB6FBB"/>
			</linearGradient>
			<path style="fill:url(#SVGID_00000150080060179613657400000008430744269769158829_);" d="M2505.274,1109.08
				c22.399,3.698,56.302,11.947,91.424,33.011c81.135,48.659,82.691,114.078,163.069,145.887c15.387,6.089,60.876,24.091,95.494,2
				c13.918-8.883,21.809-21.521,26.222-30.666c8.218,1.771,16.437,3.542,24.655,5.313c4.162,29.955,5.616,79.581-23.76,118.359
				c-57.859,76.379-203.989,69.336-291.498,3.697C2511.399,1327.062,2477.323,1216.881,2505.274,1109.08z"/>
			
				<linearGradient id="SVGID_00000142169181094718182230000013597316895091644039_" gradientUnits="userSpaceOnUse" x1="2539.9133" y1="1323.4602" x2="2949.4688" y2="1323.4602" gradientTransform="matrix(0.9996 -0.0288 0.0288 0.9996 -78.8154 27.5836)">
				<stop  offset="0" style="stop-color:#FF9085"/>
				<stop  offset="1" style="stop-color:#FB6FBB"/>
			</linearGradient>
			<path style="opacity:0.3;fill:url(#SVGID_00000142169181094718182230000013597316895091644039_);" d="M2824.55,1379.783
				c-34.748,5.09-50.899-30.116-140.863-64.922c-64.834-25.083-81.274-16.403-107.2-37.112
				c-25.75-20.566-52.391-63.406-47.247-163.639c-8.896-2.284-16.99-3.879-23.966-5.03
				c-27.952,107.802,6.124,217.982,85.608,277.601c87.509,65.64,233.638,72.682,291.498-3.697
				c26.976-35.613,27.941-80.329,24.698-110.602C2878.455,1354.413,2848.227,1376.315,2824.55,1379.783z"/>
			
				<linearGradient id="SVGID_00000080905363218568917220000016629812537805307777_" gradientUnits="userSpaceOnUse" x1="2962.4065" y1="1429.0579" x2="2920.6152" y2="1212.0653" gradientTransform="matrix(0.9996 -0.0288 0.0288 0.9996 -78.8154 27.5836)">
				<stop  offset="0.0036" style="stop-color:#26264F"/>
				<stop  offset="1" style="stop-color:#444B8C"/>
			</linearGradient>
			<path style="fill:url(#SVGID_00000080905363218568917220000016629812537805307777_);" d="M2923.049,1175.237l-36.108-8.74
				c-4.586-1.11-9.234,1.576-10.564,6.101l-24.966,84.967c-1.447,4.929,1.593,10.048,6.612,11.135l35.21,7.624
				c4.486,0.972,8.968-1.65,10.321-6.036l25.864-83.853C2930.921,1181.565,2928.005,1176.435,2923.049,1175.237z"/>
			
				<linearGradient id="SVGID_00000111155991171077284980000008737490291035246492_" gradientUnits="userSpaceOnUse" x1="2941.6563" y1="1294.9319" x2="2963.1418" y2="1294.9319" gradientTransform="matrix(0.9996 -0.0288 0.0288 0.9996 -78.8154 27.5836)">
				<stop  offset="0" style="stop-color:#FFC444"/>
				<stop  offset="0.9964" style="stop-color:#F36F56"/>
			</linearGradient>
			<path style="fill:url(#SVGID_00000111155991171077284980000008737490291035246492_);" d="M2903.554,1270.288
				c0,0,14.362-24.658,16.656-33.669c2.294-9.011-18.565-32.562-18.565-32.562s-5.466,18.111-1.659,33.145
				C2903.793,1252.237,2903.554,1270.288,2903.554,1270.288z"/>
			
				<linearGradient id="SVGID_00000180351868885520675070000006923239793594589071_" gradientUnits="userSpaceOnUse" x1="2033.0121" y1="1442.3345" x2="2740.1829" y2="1442.3345" gradientTransform="matrix(0.9996 -0.0288 0.0288 0.9996 -78.8154 27.5836)">
				<stop  offset="0" style="stop-color:#FF9085"/>
				<stop  offset="1" style="stop-color:#FB6FBB"/>
			</linearGradient>
			<path style="fill:url(#SVGID_00000180351868885520675070000006923239793594589071_);" d="M2697.061,1571.051
				c-37.183-183.483-53.661-186.05-79.17-307.359c-11.581-55.075-14.49-84.53-41.569-113.908
				c-25.932-28.132-58.269-39.098-114.369-52.051c-55.044-12.709-131.919-32.013-227.79-34.469
				c-37.43-0.959-251.73,24.404-246.347,99.589c4.457,62.262,243.117,100.259,325.037,111.484
				c11.496,54.201,26.847,148.008,5.658,258.485c-20.664,107.743-63.046,163.345-34.612,193.963
				c21.558,23.214,67.276,14.245,96.727,8.469c89.75-17.605,98.729-72.073,167.958-80.69c76.161-9.479,122.36,49.339,150.481,26.488
				C2714.422,1668.573,2711.483,1642.22,2697.061,1571.051z"/>
			
				<linearGradient id="SVGID_00000085948878559956583060000014624491280446135450_" gradientUnits="userSpaceOnUse" x1="2054.9749" y1="1470.3134" x2="2599.3286" y2="1470.3134" gradientTransform="matrix(0.9996 -0.0288 0.0288 0.9996 -78.8154 27.5836)">
				<stop  offset="0" style="stop-color:#FF9085"/>
				<stop  offset="1" style="stop-color:#FB6FBB"/>
			</linearGradient>
			<path style="opacity:0.5;fill:url(#SVGID_00000085948878559956583060000014624491280446135450_);" d="M2543.079,1513.486
				c-20.891-66.715-77.002-56.341-112.868-122.175c-38.671-70.984,10.937-111.724-29.425-184.077
				c-22.888-41.03-68.796-81.626-121.536-88.156c-48.652-6.024-70.843,20.939-160.981,49.664
				c-42.394,13.51-79.622,20.974-107.62,25.294c62.332,43.861,234.997,71.093,302.202,80.301
				c11.496,54.201,26.847,148.008,5.658,258.485c-20.664,107.743-63.046,163.345-34.612,193.963
				c21.558,23.214,67.276,14.245,96.727,8.469c89.75-17.605,98.729-72.073,167.958-80.69c6.876-0.856,13.499-1.138,19.895-0.991
				c-5.548-9.906-10.466-20.757-14.263-32.669C2539.008,1573.186,2556.016,1554.802,2543.079,1513.486z"/>
			
				<linearGradient id="SVGID_00000052785954933177586660000007717098060973922950_" gradientUnits="userSpaceOnUse" x1="2349.6006" y1="1301.9766" x2="2439.6121" y2="1589.6925" gradientTransform="matrix(0.9996 -0.0288 0.0288 0.9996 -78.8154 27.5836)">
				<stop  offset="0" style="stop-color:#FFC444"/>
				<stop  offset="0.9964" style="stop-color:#F36F56"/>
			</linearGradient>
			<path style="fill:url(#SVGID_00000052785954933177586660000007717098060973922950_);" d="M2290.853,1241.732
				c0,0,38.965,13.878,49.94,59.931c10.975,46.052,6.542,27.667-7.347,24.068S2269.01,1249.913,2290.853,1241.732z"/>
			
				<linearGradient id="SVGID_00000086671967646521026280000013240829280355136144_" gradientUnits="userSpaceOnUse" x1="2035.4088" y1="1242.3014" x2="2333.6841" y2="1242.3014" gradientTransform="matrix(0.9996 -0.0288 0.0288 0.9996 -78.8154 27.5836)">
				<stop  offset="0" style="stop-color:#FF9085"/>
				<stop  offset="1" style="stop-color:#FB6FBB"/>
			</linearGradient>
			<path style="fill:url(#SVGID_00000086671967646521026280000013240829280355136144_);" d="M2025,1139.506
				c0,0,212.671-14.406,265.414,86.989l-5.203,46.27C2285.211,1272.765,1870.086,1202.705,2025,1139.506z"/>
			
				<linearGradient id="SVGID_00000000198631096280093760000002756348405806807951_" gradientUnits="userSpaceOnUse" x1="2538.3044" y1="1242.9392" x2="2628.3159" y2="1530.6549" gradientTransform="matrix(0.9996 -0.0288 0.0288 0.9996 -78.8154 27.5836)">
				<stop  offset="0" style="stop-color:#FFC444"/>
				<stop  offset="0.9964" style="stop-color:#F36F56"/>
			</linearGradient>
			<path style="fill:url(#SVGID_00000000198631096280093760000002756348405806807951_);" d="M2466.242,1025.247
				c0,0-13.222,55.457-20.016,56.859c-6.794,1.402-61.129-1.388-61.129-1.388s97.586,48.354,152.169,40.461l-31.961-16.42
				c0,0-18.521-24.223-18.964-53.557L2466.242,1025.247z"/>
			<g>
				
					<linearGradient id="SVGID_00000097499175170330876440000014507365440429940124_" gradientUnits="userSpaceOnUse" x1="-713.84" y1="626.5301" x2="-772.59" y2="477.3156" gradientTransform="matrix(-0.9473 -0.3202 -0.3202 0.9473 1934.9342 294.1755)">
					<stop  offset="0" style="stop-color:#311944"/>
					<stop  offset="1" style="stop-color:#6B3976"/>
				</linearGradient>
				<path style="fill:url(#SVGID_00000097499175170330876440000014507365440429940124_);" d="M2527.31,1041.774
					c10.085-6.837,16.015-22.769,11.504-35.668c-3.881-11.098-14.274-16.048-20.495-19.013c-18.028-8.592-44.393-8.86-58.541,5.597
					c-8.384,8.567-5.105,33.451-4.759,37.84c0.392,4.966,3.279,7.61,5.3,11.954c2.802,6.024,7.147,15.566,14.141,31.427
					c2.083-3.261,4.903-7.216,8.625-11.277c1.431-1.562,7.116-7.635,14.033-11.916
					C2510.983,1042.137,2517.75,1048.256,2527.31,1041.774z"/>
				
					<linearGradient id="SVGID_00000106147362189912251290000000735172643435708039_" gradientUnits="userSpaceOnUse" x1="2240.6711" y1="607.0429" x2="2237.9695" y2="824.7187" gradientTransform="matrix(0.9651 0.2616 -0.2616 0.9651 490.1438 -141.2391)">
					<stop  offset="0" style="stop-color:#FFC444"/>
					<stop  offset="0.9964" style="stop-color:#F36F56"/>
				</linearGradient>
				<path style="fill:url(#SVGID_00000106147362189912251290000000735172643435708039_);" d="M2462.066,1058.344
					c0,0,5.413,24.465,30.527,31.273c22.486,6.095,42.588-42.128,32.12-57.404c-3.492-5.096-12.383-9.758-20.748-10.232
					c-4.94-0.28-7.108,1.072-15.172,0.459c-7.438-0.566-9.108-1.984-11.764-0.954c-3.323,1.288-7.033,5.964-7.662,21.858
					c-2.742-5.686-7.22-9.041-11.366-8.576c-0.661,0.074-2.524,0.585-3.907,1.851
					C2449.092,1041.202,2451.774,1050.157,2462.066,1058.344z"/>
				
					<linearGradient id="SVGID_00000011750602269984840990000005063014808404596907_" gradientUnits="userSpaceOnUse" x1="-731.7836" y1="633.6799" x2="-790.5972" y2="484.304" gradientTransform="matrix(-0.9473 -0.3202 -0.3202 0.9473 1934.9342 294.1755)">
					<stop  offset="0" style="stop-color:#311944"/>
					<stop  offset="1" style="stop-color:#6B3976"/>
				</linearGradient>
				<path style="fill:url(#SVGID_00000011750602269984840990000005063014808404596907_);" d="M2477.043,1018.194
					c0.79,1.155-3.806,4.004-5.965,9.521c-4.19,10.712,2.348,27.529,13.197,32.479c6.414,2.926,9.608-0.452,20.976,2.144
					c7.04,1.607,12.399,4.406,15.692,6.401c-0.632,13.104-7.946,23.884-17.804,26.672c-10.615,3.002-20.343-4.35-24.411-7.425
					c-2.722-2.058-11.448-8.629-13.499-19.396c-2.137-11.219,5.049-15.081,1.085-23.531c-2-4.263-5.592-7.042-7.429-14.597
					c-0.499-2.053-0.706-3.789-0.802-4.941C2465.818,1021.452,2475.899,1016.524,2477.043,1018.194z"/>
				
					<linearGradient id="SVGID_00000031174391896223702150000014867608852163496872_" gradientUnits="userSpaceOnUse" x1="-789.3435" y1="543.6779" x2="-786.2855" y2="570.9404" gradientTransform="matrix(-0.9473 -0.3202 -0.3202 0.9473 1934.9342 294.1755)">
					<stop  offset="0" style="stop-color:#FFC444"/>
					<stop  offset="1" style="stop-color:#F36F56"/>
				</linearGradient>
				<path style="fill:url(#SVGID_00000031174391896223702150000014867608852163496872_);" d="M2511.445,1070.429
					c0,0-5.6,0.855-13.651-2.415c-0.392-0.159-0.872-0.192-0.993-0.003c-0.456,0.714,3.617,6.008,8.935,6.304
					c3.777,0.21,7.574-2.134,7.394-3.122C2513.055,1070.775,2512.259,1070.554,2511.445,1070.429z"/>
			</g>
		</g>
	</g>
</g>
</svg>
